<svg width="120" height="120" viewBox="0 0 120 120" fill="none" xmlns="http://www.w3.org/2000/svg">
<path d="M51 19V101C37.2336 101 25.0515 94.2036 17.6401 83.7973C12.8168 77.0887 10 68.8656 10 59.991C10 37.3474 28.3609 19 51 19Z" fill="#3E8672"/>
<path d="M50.746 86.6067C65.4412 86.6067 77.354 74.6939 77.354 59.9987C77.354 45.3034 65.4412 33.3906 50.746 33.3906C36.0508 33.3906 24.1379 45.3034 24.1379 59.9987C24.1379 74.6939 36.0508 86.6067 50.746 86.6067Z" stroke="#333333" stroke-width="2"/>
<path d="M50.7456 93.2238C32.3968 93.2238 17.5215 78.3485 17.5215 59.9997C17.5215 41.6503 32.3968 26.7754 50.7456 26.7754" stroke="#333333" stroke-width="2"/>
<path d="M61.4421 56.3589L50.6034 60.9829L50.5022 40.9961" stroke="#333333" stroke-width="2" stroke-linecap="round" stroke-linejoin="round"/>
<path d="M85.594 60H110.578" stroke="#333333" stroke-width="2" stroke-linecap="round"/>
<path d="M83.0312 70.8887H100.328" stroke="#333333" stroke-width="2" stroke-linecap="round"/>
<path d="M83.0312 49.75H100.328" stroke="#333333" stroke-width="2" stroke-linecap="round"/>
</svg>
