<svg width="120" height="120" viewBox="0 0 120 120" fill="none" xmlns="http://www.w3.org/2000/svg">
<path d="M38.0597 56.1193C48.0337 56.1193 56.1193 48.0337 56.1193 38.0597C56.1193 28.0856 48.0337 20 38.0597 20C28.0856 20 20 28.0856 20 38.0597C20 48.0337 28.0856 56.1193 38.0597 56.1193Z" fill="#C3F234"/>
<path d="M93.4629 20H72.2853C68.1593 20 64.8145 23.3448 64.8145 27.4708V48.6484C64.8145 52.7744 68.1593 56.1192 72.2853 56.1192H93.4629C97.5889 56.1192 100.934 52.7744 100.934 48.6484V27.4708C100.934 23.3448 97.5889 20 93.4629 20Z" fill="#C3F234"/>
<path d="M48.6487 63.4785H27.4711C23.345 63.4785 20.0002 66.8233 20.0002 70.9493V92.1269C20.0002 96.253 23.345 99.5978 27.4711 99.5978H48.6487C52.7747 99.5978 56.1195 96.253 56.1195 92.1269V70.9493C56.1195 66.8233 52.7747 63.4785 48.6487 63.4785Z" fill="#C3F234"/>
<path d="M82.8747 100.001C92.7024 100.001 100.669 92.0344 100.669 82.2067C100.669 72.379 92.7024 64.4121 82.8747 64.4121C73.047 64.4121 65.0801 72.379 65.0801 82.2067C65.0801 92.0344 73.047 100.001 82.8747 100.001Z" stroke="#333333" stroke-width="2"/>
<path d="M83.2088 82.2851C81.0143 82.2851 79.2368 80.7722 79.2368 78.9033C79.2368 77.0349 81.0143 75.5215 83.2088 75.5215C85.4034 75.5215 87.1808 77.0349 87.1808 78.9033" stroke="#333333" stroke-width="2" stroke-linecap="round" stroke-linejoin="round"/>
<path d="M83.2088 82.2832C85.4034 82.2832 87.1808 83.796 87.1808 85.6644C87.1808 87.5333 85.4034 89.0462 83.2088 89.0462C81.0143 89.0462 79.2368 87.5296 79.2368 85.6613" stroke="#333333" stroke-width="2" stroke-linecap="round" stroke-linejoin="round"/>
<path d="M83.209 75.5195V73.8809" stroke="#333333" stroke-width="2" stroke-linecap="round" stroke-linejoin="round"/>
<path d="M83.209 90.6796V89.041" stroke="#333333" stroke-width="2" stroke-linecap="round" stroke-linejoin="round"/>
<path d="M79.0315 41.2312L82.7289 37.5586L86.4046 41.2711" stroke="black" stroke-width="2" stroke-linecap="round" stroke-linejoin="round"/>
<path d="M82.8745 63.4747V38.7266" stroke="#333333" stroke-width="2" stroke-linecap="round"/>
<path d="M37.7253 38.7266H64.4802" stroke="#333333" stroke-width="2" stroke-linecap="round"/>
<path d="M38.0596 56.457V83.5462" stroke="#333333" stroke-width="2" stroke-linecap="round"/>
<path d="M56.1194 82.6074H64.8148" stroke="#333333" stroke-width="2"/>
</svg>
