<svg width="120" height="120" viewBox="0 0 120 120" fill="none" xmlns="http://www.w3.org/2000/svg">
<path d="M48.8158 62.6072C48.8158 65.9631 46.0053 68.6881 42.5309 68.6881V76.3184C42.5309 77.4269 41.6007 78.3164 40.4625 78.3164H32.5553C32.5553 74.9605 29.7441 72.2447 26.2605 72.2447C22.777 72.2447 19.9763 74.9605 19.9763 78.3164H12.0685C10.9204 78.3164 10 77.4177 10 76.3184V68.6881C13.4737 68.6881 16.2947 65.9631 16.2947 62.6072C16.2947 59.2506 13.4737 56.5355 10 56.5355V48.8958C10 47.7867 10.9303 46.8975 12.0685 46.8975H19.9763C19.9763 43.5414 22.7868 40.8164 26.2605 40.8164C29.7342 40.8164 32.5553 43.5414 32.5553 46.8975H40.4625C41.6105 46.8975 42.5309 47.7963 42.5309 48.8958V56.5355C46.0053 56.5355 48.8158 59.2506 48.8158 62.6072Z" fill="#FFC6D1"/>
<path d="M36.6231 65.1073V51.4434H34.3862" stroke="black" stroke-width="2" stroke-miterlimit="10" stroke-linecap="round"/>
<path d="M17.2368 51.6973H30.9697V60.4886V54.9722" stroke="black" stroke-width="2" stroke-miterlimit="10" stroke-linecap="round"/>
<path d="M19.4736 55.998V69.6619H21.7105" stroke="black" stroke-width="2" stroke-miterlimit="10" stroke-linecap="round"/>
<path d="M39.6052 67.9067H25.8723V59.1152V64.6317" stroke="black" stroke-width="2" stroke-miterlimit="10" stroke-linecap="round"/>
<path d="M25.8723 59.1152L29.9124 64.3468" stroke="black" stroke-width="2" stroke-miterlimit="10" stroke-linecap="round"/>
<path d="M26.9294 55.2402L30.9696 60.456" stroke="black" stroke-width="2" stroke-miterlimit="10" stroke-linecap="round"/>
<path d="M86.5626 94.1654C86.5626 97.8628 83.5251 100.865 79.7718 100.865V109.271C79.7718 110.493 78.7666 111.473 77.537 111.473H68.9929C68.9929 107.775 65.956 104.783 62.1916 104.783C58.4277 104.783 55.4014 107.775 55.4014 111.473H46.8573C45.6166 111.473 44.6218 110.483 44.6218 109.271V100.865C48.3758 100.865 51.4231 97.8628 51.4231 94.1654C51.4231 90.4681 48.3758 87.476 44.6218 87.476V79.0595C44.6218 77.8378 45.6271 76.8575 46.8573 76.8575H55.4014C55.4014 73.1602 58.4383 70.1582 62.1916 70.1582C65.9448 70.1582 68.9929 73.1602 68.9929 76.8575H77.537C78.7771 76.8575 79.7718 77.8483 79.7718 79.0595V87.476C83.5251 87.476 86.5626 90.4681 86.5626 94.1654Z" fill="#FFC6D1"/>
<path d="M64.752 102.354C70.2835 102.354 74.7677 97.8564 74.7677 92.3091C74.7677 86.761 70.2835 82.2637 64.752 82.2637C59.221 82.2637 54.7368 86.761 54.7368 92.3091C54.7368 97.8564 59.221 102.354 64.752 102.354Z" stroke="black" stroke-width="2" stroke-miterlimit="10" stroke-linecap="round"/>
<path d="M67.8948 95.2517C69.5967 95.2517 70.9803 93.8642 70.9803 92.1563C70.9803 90.7787 70.0796 89.6096 68.8375 89.209" stroke="black" stroke-width="2" stroke-miterlimit="10" stroke-linecap="round"/>
<path d="M61.5782 89.168C59.8756 89.168 58.4927 90.5555 58.4927 92.2634C58.4927 93.641 59.3927 94.8107 60.6348 95.2107" stroke="black" stroke-width="2" stroke-miterlimit="10" stroke-linecap="round"/>
<path d="M66.1606 86.8848V95.2538H67.8949" stroke="black" stroke-width="2" stroke-miterlimit="10" stroke-linecap="round"/>
<path d="M63.3123 97.5383V89.1699H61.5781" stroke="black" stroke-width="2" stroke-miterlimit="10" stroke-linecap="round"/>
<path d="M85.3288 86.8684H104.737C107.643 86.8684 110 84.5118 110 81.6053V32.2632C110 29.3564 107.643 27 104.737 27H31.7104C28.8038 27 26.4473 29.3564 26.4473 32.2632V47.3947M38.6183 86.8684H31.7104C28.8038 86.8684 26.4473 84.5118 26.4473 81.6053V75.6842" stroke="black" stroke-width="2" stroke-linecap="round"/>
<path d="M110 38.8418H26.4473" stroke="black" stroke-width="2"/>
<path d="M33.6842 34.237C34.4109 34.237 35 33.6479 35 32.9213C35 32.1946 34.4109 31.6055 33.6842 31.6055C32.9575 31.6055 32.3684 32.1946 32.3684 32.9213C32.3684 33.6479 32.9575 34.237 33.6842 34.237Z" fill="black"/>
<path d="M37.6315 34.237C38.3582 34.237 38.9473 33.6479 38.9473 32.9213C38.9473 32.1946 38.3582 31.6055 37.6315 31.6055C36.9048 31.6055 36.3157 32.1946 36.3157 32.9213C36.3157 33.6479 36.9048 34.237 37.6315 34.237Z" fill="black"/>
<path d="M42.8948 32.9213C42.8948 33.648 42.3059 34.237 41.579 34.237C40.852 34.237 40.2632 33.648 40.2632 32.9213C40.2632 32.1945 40.852 31.6055 41.579 31.6055C42.3059 31.6055 42.8948 32.1945 42.8948 32.9213Z" fill="black"/>
</svg>
