<svg width="120" height="120" viewBox="0 0 120 120" fill="none" xmlns="http://www.w3.org/2000/svg">
<path d="M43.8129 51.9948C43.9227 50.5832 45.0998 49.4941 46.5155 49.4941H76.4638C77.8991 49.4941 79.0864 50.6137 79.1698 52.047L81.8548 98.1296C81.9456 99.6862 80.7081 100.998 79.1488 100.998H42.9353C41.3556 100.998 40.11 99.6523 40.2327 98.0774L43.8129 51.9948Z" fill="#C3F234"/>
<path d="M69.0172 51.9962C69.1263 50.5839 70.3034 49.4941 71.7198 49.4941H90.9362C92.3722 49.4941 93.5589 50.6144 93.6422 52.0483L95.4096 82.5442C95.4997 84.1001 94.2623 85.4114 92.7029 85.4114H69.3635C67.7838 85.4114 66.5389 84.0669 66.6608 82.492L69.0172 51.9962Z" fill="#C3F234"/>
<path d="M29.7691 38.5105C29.8443 37.6341 30.5775 36.9609 31.4572 36.9609H72.1705C73.0643 36.9609 73.8037 37.6548 73.8613 38.5464L77.4334 94.1169C77.4964 95.0928 76.7211 95.9195 75.7432 95.9195H26.6944C25.7016 95.9195 24.9216 95.0697 25.0063 94.081L29.7691 38.5105Z" stroke="#333333" stroke-width="2"/>
<path d="M38.6504 35.9421V28.4198C38.6504 23.1913 44.1342 19 50.8487 19C57.6195 19 63.0471 23.2346 63.0471 28.4198V35.9421" stroke="#333333" stroke-width="2" stroke-miterlimit="10" stroke-linecap="round"/>
<path d="M50.8486 87.5239L68.5464 69.8262" stroke="#333333" stroke-width="2" stroke-linecap="round"/>
<path d="M58.6697 89.8708L70.5014 78.0391" stroke="#333333" stroke-width="2" stroke-linecap="round"/>
</svg>
