<svg width="120" height="120" viewBox="0 0 120 120" fill="none" xmlns="http://www.w3.org/2000/svg">
<path d="M90.0351 100H32.605L47.0261 60L32.605 20H90.0351L101.442 60L90.0351 100Z" fill="#FFC6D1"/>
<path d="M55.3946 76.7471C64.4709 76.7471 71.8287 69.3893 71.8287 60.313C71.8287 51.2367 64.4709 43.8789 55.3946 43.8789C46.3183 43.8789 38.9604 51.2367 38.9604 60.313C38.9604 69.3893 46.3183 76.7471 55.3946 76.7471Z" stroke="#333333" stroke-width="2"/>
<path d="M55.7052 60.3784C53.6704 60.3784 52.0227 58.975 52.0227 57.2429C52.0227 55.5102 53.6704 54.1074 55.7052 54.1074C57.7399 54.1074 59.3883 55.5102 59.3883 57.2429" stroke="#333333" stroke-width="2" stroke-linecap="round" stroke-linejoin="round"/>
<path d="M55.7052 60.3789C57.7399 60.3789 59.3883 61.7817 59.3883 63.5138C59.3883 65.2465 57.7399 66.6493 55.7052 66.6493C53.6704 66.6493 52.0227 65.2428 52.0227 63.5107" stroke="#333333" stroke-width="2" stroke-linecap="round" stroke-linejoin="round"/>
<path d="M55.7043 54.1137V52.5938" stroke="#333333" stroke-width="2" stroke-linecap="round" stroke-linejoin="round"/>
<path d="M55.7043 68.1717V66.6523" stroke="#333333" stroke-width="2" stroke-linecap="round" stroke-linejoin="round"/>
<path d="M65.3169 47.5938L74.3091 38.6016H96.3246" stroke="#333333" stroke-width="2"/>
<path d="M93.7915 35.0371L97.0907 38.5675L93.5459 41.8686" stroke="#333333" stroke-width="2" stroke-linecap="round" stroke-linejoin="round"/>
<path d="M45.0077 47.5938L36.0155 38.6016H14" stroke="#333333" stroke-width="2" stroke-linecap="round"/>
<path d="M65.3169 73.9492L74.3091 82.9415H96.3246" stroke="#333333" stroke-width="2"/>
<path d="M93.7915 86.3687L97.0907 82.8382L93.5459 79.5371" stroke="#333333" stroke-width="2" stroke-linecap="round" stroke-linejoin="round"/>
<path d="M45.0077 73.9492L36.0155 82.9415H14" stroke="#333333" stroke-width="2" stroke-linecap="round"/>
</svg>
