<svg width="120" height="120" viewBox="0 0 120 120" fill="none" xmlns="http://www.w3.org/2000/svg">
<path d="M61.6979 80.1371C56.2892 87.5995 47.3989 92.4729 37.3521 92.4729C27.3059 92.4729 18.4155 87.5995 13.0066 80.1371C18.4155 72.6747 27.3059 67.8008 37.3521 67.8008C47.3989 67.8008 56.2892 72.6747 61.6979 80.1371Z" fill="#939FE1"/>
<path d="M70.1904 72.849C74.0895 78.2758 80.4989 81.8205 87.742 81.8205C94.9846 81.8205 101.394 78.2758 105.294 72.849C101.394 67.4217 94.9846 63.877 87.742 63.877C80.4989 63.877 74.0895 67.4217 70.1904 72.849Z" fill="#939FE1"/>
<path d="M38.4849 63.3157C44.426 63.3157 49.2423 58.5457 49.2423 52.6617C49.2423 46.7777 44.426 42.0078 38.4849 42.0078C32.5438 42.0078 27.7275 46.7777 27.7275 52.6617C27.7275 58.5457 32.5438 63.3157 38.4849 63.3157Z" fill="#939FE1"/>
<path d="M87.4587 61.0735C83.2374 61.0735 79.8153 57.5589 79.8153 53.2233C79.8153 48.8877 83.2374 45.373 87.4587 45.373C91.68 45.373 95.1021 48.8877 95.1021 53.2233C95.1021 57.5589 91.68 61.0735 87.4587 61.0735Z" fill="#939FE1"/>
<path d="M57.7495 52.142L60.6535 55.4705L69.8448 47.5742" stroke="black" stroke-width="2" stroke-linecap="round" stroke-linejoin="round"/>
<path d="M72.0798 40.8672H53.9785C53.2644 40.8672 52.6855 41.4461 52.6855 42.1601V59.7443C52.6855 60.4584 53.2644 61.0372 53.9785 61.0372H72.0798C72.7939 61.0372 73.3728 60.4584 73.3728 59.7443V42.1601C73.3728 41.4461 72.7939 40.8672 72.0798 40.8672Z" stroke="black" stroke-width="2"/>
<path d="M66.2792 64.7842C65.6518 66.8379 64.7835 68.8523 63.6648 70.7897C55.6428 84.6843 37.768 89.3823 23.74 81.2833C9.71173 73.1842 4.84283 55.3549 12.8648 41.4603C20.8867 27.5658 38.762 22.8677 52.7901 30.9668C56.9932 33.3936 60.3741 36.6938 62.8323 40.5" stroke="black" stroke-width="2"/>
<path d="M71.3774 40.4431C73.7734 37.2878 77.0899 34.7759 81.1076 33.3643C92.0236 29.529 103.982 35.269 107.817 46.1852C111.652 57.1012 105.913 69.0594 94.9965 72.8944C88.0679 75.3288 80.7198 73.9061 75.2949 69.7503" stroke="black" stroke-width="2"/>
</svg>
