<svg width="120" height="120" viewBox="0 0 120 120" fill="none" xmlns="http://www.w3.org/2000/svg">
<path d="M67.8327 99.9994C78.4915 99.9994 87.1322 91.3587 87.1322 80.6999C87.1322 70.0411 78.4915 61.4004 67.8327 61.4004C57.1739 61.4004 48.5332 70.0411 48.5332 80.6999C48.5332 91.3587 57.1739 99.9994 67.8327 99.9994Z" fill="#939FE1"/>
<path d="M39.1944 80.3888C55.8703 80.3888 69.3888 66.8703 69.3888 50.1944C69.3888 33.5185 55.8703 20 39.1944 20C22.5185 20 9 33.5185 9 50.1944C9 66.8703 22.5185 80.3888 39.1944 80.3888Z" stroke="#333333" stroke-width="2"/>
<path d="M38.9267 50.0094C35.2909 50.0094 32.3462 47.4631 32.3462 44.3192C32.3462 41.1752 35.2909 38.6289 38.9267 38.6289C42.5625 38.6289 45.5072 41.1752 45.5072 44.3192" stroke="#333333" stroke-width="2" stroke-linecap="round" stroke-linejoin="round"/>
<path d="M38.9267 50.0117C42.5625 50.0117 45.5072 52.558 45.5072 55.702C45.5072 58.8459 42.5625 61.3922 38.9267 61.3922C35.2909 61.3922 32.3462 58.8397 32.3462 55.6957" stroke="#333333" stroke-width="2" stroke-linecap="round" stroke-linejoin="round"/>
<path d="M38.9265 38.6408V35.8828" stroke="#333333" stroke-width="2" stroke-linecap="round" stroke-linejoin="round"/>
<path d="M38.9265 64.1486V61.3906" stroke="#333333" stroke-width="2" stroke-linecap="round" stroke-linejoin="round"/>
<path d="M82.1511 53.9297H108.337" stroke="#333333" stroke-width="2" stroke-linecap="round"/>
<path d="M75.9263 42.0957H103.63" stroke="#333333" stroke-width="2" stroke-linecap="round"/>
<path d="M88.9995 65.7617H111.412" stroke="#333333" stroke-width="2" stroke-linecap="round"/>
</svg>
