<svg width="120" height="120" viewBox="0 0 120 120" fill="none" xmlns="http://www.w3.org/2000/svg">
<path d="M89.6961 20H45.1289C40.2868 20 36.3616 23.9253 36.3616 28.7673V85.7549C36.3616 90.5969 40.2868 94.5222 45.1289 94.5222H89.6961C94.5382 94.5222 98.4634 90.5969 98.4634 85.7549V28.7673C98.4634 23.9253 94.5382 20 89.6961 20Z" fill="#3E8672"/>
<path d="M76.5447 41.5508H18.8265C17.8178 41.5508 17 42.3685 17 43.3773V85.0221C17 86.0308 17.8178 86.8486 18.8265 86.8486H76.5447C77.5535 86.8486 78.3712 86.0308 78.3712 85.0221V43.3773C78.3712 42.3685 77.5535 41.5508 76.5447 41.5508Z" stroke="#333333" stroke-width="2"/>
<path d="M61.9324 93.4258H33.4386C32.4298 93.4258 31.6121 94.2435 31.6121 95.2523V98.1747C31.6121 99.1835 32.4298 100.001 33.4386 100.001H61.9324C62.9411 100.001 63.7589 99.1835 63.7589 98.1747V95.2523C63.7589 94.2435 62.9411 93.4258 61.9324 93.4258Z" stroke="#333333" stroke-width="2"/>
<path d="M58.645 86.8516H37.4573V93.4271H58.645V86.8516Z" stroke="#333333" stroke-width="2"/>
<path d="M57.5491 79.92L70.7074 66.7617" stroke="#333333" stroke-width="2" stroke-linecap="round"/>
<path d="M63.3635 81.6645L72.1608 72.8672" stroke="#333333" stroke-width="2" stroke-linecap="round"/>
</svg>
