<svg width="120" height="120" viewBox="0 0 120 120" fill="none" xmlns="http://www.w3.org/2000/svg">
<path d="M90.0356 100H32.6055L47.0266 60L32.6055 20H90.0356L101.443 60L90.0356 100Z" fill="#3E8672"/>
<path d="M55.3946 76.7491C64.4709 76.7491 71.8287 69.3913 71.8287 60.315C71.8287 51.2387 64.4709 43.8809 55.3946 43.8809C46.3182 43.8809 38.9604 51.2387 38.9604 60.315C38.9604 69.3913 46.3182 76.7491 55.3946 76.7491Z" stroke="#333333" stroke-width="2"/>
<path d="M55.7054 60.3765C53.6707 60.3765 52.0229 58.9731 52.0229 57.241C52.0229 55.5083 53.6707 54.1055 55.7054 54.1055C57.7401 54.1055 59.3885 55.5083 59.3885 57.241" stroke="#333333" stroke-width="2" stroke-linecap="round" stroke-linejoin="round"/>
<path d="M55.7054 60.375C57.7401 60.375 59.3885 61.7778 59.3885 63.5099C59.3885 65.2426 57.7401 66.6454 55.7054 66.6454C53.6707 66.6454 52.0229 65.2389 52.0229 63.5068" stroke="#333333" stroke-width="2" stroke-linecap="round" stroke-linejoin="round"/>
<path d="M55.7041 54.1177V52.5977" stroke="#333333" stroke-width="2" stroke-linecap="round" stroke-linejoin="round"/>
<path d="M55.7041 68.1756V66.6562" stroke="#333333" stroke-width="2" stroke-linecap="round" stroke-linejoin="round"/>
<path d="M65.3164 47.5938L74.3086 38.6016H96.3241" stroke="#333333" stroke-width="2"/>
<path d="M93.7917 35.0352L97.0909 38.5655L93.5461 41.8667" stroke="black" stroke-width="2" stroke-linecap="round" stroke-linejoin="round"/>
<path d="M45.0077 47.5938L36.0155 38.6016H14" stroke="#333333" stroke-width="2" stroke-linecap="round"/>
<path d="M65.3164 73.9473L74.3086 82.9395H96.3241" stroke="#333333" stroke-width="2"/>
<path d="M93.7917 86.3687L97.0909 82.8382L93.5461 79.5371" stroke="black" stroke-width="2" stroke-linecap="round" stroke-linejoin="round"/>
<path d="M45.0077 73.9473L36.0155 82.9395H14" stroke="#333333" stroke-width="2" stroke-linecap="round"/>
</svg>
