<svg width="120" height="120" viewBox="0 0 120 120" fill="none" xmlns="http://www.w3.org/2000/svg">
<path d="M78.0571 20H34.1366C29.9784 20 26.6074 23.3709 26.6074 27.5292V73.9594C26.6074 78.1177 29.9784 81.4886 34.1366 81.4886H78.0571C82.2154 81.4886 85.5863 78.1177 85.5863 73.9594V27.5292C85.5863 23.3709 82.2154 20 78.0571 20Z" fill="#C3F234"/>
<path d="M56.0974 49.4901L68.2885 36.9414H98.1355" stroke="#333333" stroke-width="2" stroke-linecap="round"/>
<path d="M19.7058 47.6035L32.2545 60.8863V93.4063" stroke="#333333" stroke-width="2" stroke-linecap="round"/>
<path d="M43.5486 94.0381L56.0973 81.1192V49.4902" stroke="#333333" stroke-width="2" stroke-linecap="round"/>
<path d="M101.9 39.7641C103.459 39.7641 104.723 38.5 104.723 36.9406C104.723 35.3813 103.459 34.1172 101.9 34.1172C100.341 34.1172 99.0764 35.3813 99.0764 36.9406C99.0764 38.5 100.341 39.7641 101.9 39.7641Z" stroke="#333333" stroke-width="2"/>
<path d="M17.8235 48.5454C19.3828 48.5454 20.6469 47.2812 20.6469 45.7219C20.6469 44.1625 19.3828 42.8984 17.8235 42.8984C16.2641 42.8984 15 44.1625 15 45.7219C15 47.2812 16.2641 48.5454 17.8235 48.5454Z" stroke="#333333" stroke-width="2"/>
<path d="M41.6657 100C43.2251 100 44.4892 98.7363 44.4892 97.177C44.4892 95.6176 43.2251 94.3535 41.6657 94.3535C40.1064 94.3535 38.8423 95.6176 38.8423 97.177C38.8423 98.7363 40.1064 100 41.6657 100Z" stroke="#333333" stroke-width="2"/>
<path d="M32.2544 100C33.8137 100 35.0778 98.7363 35.0778 97.177C35.0778 95.6176 33.8137 94.3535 32.2544 94.3535C30.695 94.3535 29.4309 95.6176 29.4309 97.177C29.4309 98.7363 30.695 100 32.2544 100Z" stroke="#333333" stroke-width="2"/>
<path d="M84.959 89.9601C94.4884 89.9601 102.214 82.235 102.214 72.7056C102.214 63.1763 94.4884 55.4512 84.959 55.4512C75.4297 55.4512 67.7046 63.1763 67.7046 72.7056C67.7046 82.235 75.4297 89.9601 84.959 89.9601Z" stroke="#333333" stroke-width="2"/>
<path d="M85.2726 72.7435C82.8971 72.7435 80.9734 71.1134 80.9734 69.1012C80.9734 67.0884 82.8971 65.459 85.2726 65.459C87.648 65.459 89.5718 67.0884 89.5718 69.1012" stroke="#333333" stroke-width="2" stroke-linecap="round" stroke-linejoin="round"/>
<path d="M85.2726 72.7402C87.648 72.7402 89.5718 74.3697 89.5718 76.3825C89.5718 78.3947 87.648 80.0248 85.2726 80.0248C82.8971 80.0248 80.9734 78.3909 80.9734 76.3781" stroke="#333333" stroke-width="2" stroke-linecap="round" stroke-linejoin="round"/>
<path d="M85.2727 65.459V63.6934" stroke="#333333" stroke-width="2" stroke-linecap="round" stroke-linejoin="round"/>
<path d="M85.2727 81.7832V80.0176" stroke="#333333" stroke-width="2" stroke-linecap="round" stroke-linejoin="round"/>
</svg>
