<svg width="120" height="120" viewBox="0 0 120 120" fill="none" xmlns="http://www.w3.org/2000/svg">
<rect x="17" y="26" width="74" height="74" rx="11" fill="#C3F234"/>
<path d="M37.0063 31.758L45.949 41.3885L70.9427 18" stroke="#333333" stroke-width="2"/>
<path d="M70.0254 73.0314L78.9681 82.662L103.962 59.2734" stroke="#333333" stroke-width="2"/>
<path d="M70.5 24.8789H91.8344C96.2527 24.8789 99.8344 28.4606 99.8344 32.8789V45.8789C99.8344 50.2972 96.2527 53.8789 91.8344 53.8789H34C29.5817 53.8789 26 50.2972 26 45.8789V32.8789C26 28.4606 29.5817 24.8789 34 24.8789H54.5" stroke="#333333" stroke-width="2"/>
<path d="M90.5 59.7324H34C29.5817 59.7324 26 63.3141 26 67.7324V80.7324C26 85.1507 29.5817 88.7324 34 88.7324H91.8344C96.2527 88.7324 99.8344 85.1507 99.8344 80.7324V71.5" stroke="#333333" stroke-width="2"/>
<line x1="68.2356" y1="82.1211" x2="43.9299" y2="82.1211" stroke="#333333" stroke-width="2"/>
</svg>
