<svg width="120" height="120" viewBox="0 0 120 120" fill="none" xmlns="http://www.w3.org/2000/svg">
<path d="M45.6796 57.5611C45.6796 60.8188 42.9513 63.4641 39.5787 63.4641V70.871C39.5787 71.9471 38.6757 72.8105 37.5708 72.8105H29.895C29.895 69.5528 27.1661 66.9165 23.7846 66.9165C20.403 66.9165 17.6843 69.5528 17.6843 72.8105H10.0079C8.89345 72.8105 8 71.9381 8 70.871V63.4641C11.372 63.4641 14.1105 60.8188 14.1105 57.5611C14.1105 54.3028 11.372 51.6672 8 51.6672V44.2511C8 43.1744 8.90309 42.3113 10.0079 42.3113H17.6843C17.6843 39.0534 20.4126 36.4082 23.7846 36.4082C27.1566 36.4082 29.895 39.0534 29.895 42.3113H37.5708C38.6852 42.3113 39.5787 43.1838 39.5787 44.2511V51.6672C42.9513 51.6672 45.6796 54.3028 45.6796 57.5611Z" fill="#3E8672"/>
<path d="M33.8435 59.9925V46.7285H31.6721" stroke="black" stroke-width="2" stroke-miterlimit="10" stroke-linecap="round"/>
<path d="M15.0249 46.9707H28.3558V55.5048V50.1498" stroke="black" stroke-width="2" stroke-miterlimit="10" stroke-linecap="round"/>
<path d="M17.1965 51.1484V64.4123H19.3679" stroke="black" stroke-width="2" stroke-miterlimit="10" stroke-linecap="round"/>
<path d="M36.7386 62.7079H23.4077V54.1738V59.5288" stroke="black" stroke-width="2" stroke-miterlimit="10" stroke-linecap="round"/>
<path d="M23.4077 54.1738L27.3296 59.2523" stroke="black" stroke-width="2" stroke-miterlimit="10" stroke-linecap="round"/>
<path d="M24.4343 50.4121L28.3562 55.4752" stroke="black" stroke-width="2" stroke-miterlimit="10" stroke-linecap="round"/>
<path d="M82.3213 88.201C82.3213 91.7901 79.3727 94.7042 75.7293 94.7042V102.864C75.7293 104.051 74.7534 105.002 73.5598 105.002H65.2658C65.2658 101.412 62.3179 98.508 58.6636 98.508C55.01 98.508 52.0722 101.412 52.0722 105.002H43.7782C42.5738 105.002 41.6082 104.04 41.6082 102.864V94.7042C45.2522 94.7042 48.2104 91.7901 48.2104 88.201C48.2104 84.6119 45.2522 81.7073 41.6082 81.7073V73.5372C41.6082 72.3513 42.584 71.4004 43.7782 71.4004H52.0722C52.0722 67.8106 55.0202 64.8965 58.6636 64.8965C62.307 64.8965 65.2658 67.8106 65.2658 71.4004H73.5598C74.7636 71.4004 75.7293 72.3615 75.7293 73.5372V81.7073C79.3727 81.7073 82.3213 84.6119 82.3213 88.201Z" fill="#3E8672"/>
<path d="M61.1497 96.1466C66.5194 96.1466 70.8723 91.7809 70.8723 86.3959C70.8723 81.0103 66.5194 76.6445 61.1497 76.6445C55.7807 76.6445 51.4277 81.0103 51.4277 86.3959C51.4277 91.7809 55.7807 96.1466 61.1497 96.1466Z" stroke="black" stroke-width="2" stroke-miterlimit="10" stroke-linecap="round"/>
<path d="M64.2002 89.2546C65.853 89.2546 67.1954 87.9077 67.1954 86.2498C67.1954 84.9125 66.3211 83.7776 65.1154 83.3887" stroke="black" stroke-width="2" stroke-miterlimit="10" stroke-linecap="round"/>
<path d="M58.0687 83.3496C56.4159 83.3496 55.0735 84.6965 55.0735 86.3544C55.0735 87.6917 55.9471 88.8272 57.1535 89.2155" stroke="black" stroke-width="2" stroke-miterlimit="10" stroke-linecap="round"/>
<path d="M62.5166 81.127V89.2504H64.1994" stroke="black" stroke-width="2" stroke-miterlimit="10" stroke-linecap="round"/>
<path d="M59.7518 91.4737V83.3496H58.0684" stroke="black" stroke-width="2" stroke-miterlimit="10" stroke-linecap="round"/>
<path d="M81.1238 81.116H99.9636C102.785 81.116 105.073 78.8284 105.073 76.0069V28.1091C105.073 25.2874 102.785 23 99.9636 23H29.0749C26.2534 23 23.9658 25.2874 23.9658 28.1091V42.7978M35.7806 81.116H29.0749C26.2534 81.116 23.9658 78.8284 23.9658 76.0069V70.2591" stroke="#333333" stroke-width="2" stroke-linecap="round"/>
<path d="M105.073 34.4941H23.9658" stroke="black" stroke-width="2"/>
<path d="M30.9911 30.0213C31.6966 30.0213 32.2684 29.4495 32.2684 28.7441C32.2684 28.0387 31.6966 27.4668 30.9911 27.4668C30.2857 27.4668 29.7139 28.0387 29.7139 28.7441C29.7139 29.4495 30.2857 30.0213 30.9911 30.0213Z" fill="black"/>
<path d="M34.8229 30.0213C35.5283 30.0213 36.1002 29.4495 36.1002 28.7441C36.1002 28.0387 35.5283 27.4668 34.8229 27.4668C34.1175 27.4668 33.5457 28.0387 33.5457 28.7441C33.5457 29.4495 34.1175 30.0213 34.8229 30.0213Z" fill="black"/>
<path d="M39.9317 28.7441C39.9317 29.4495 39.3602 30.0213 38.6545 30.0213C37.9488 30.0213 37.3772 29.4495 37.3772 28.7441C37.3772 28.0386 37.9488 27.4668 38.6545 27.4668C39.3602 27.4668 39.9317 28.0386 39.9317 28.7441Z" fill="black"/>
</svg>
