<svg width="120" height="120" viewBox="0 0 120 120" fill="none" xmlns="http://www.w3.org/2000/svg">
<path d="M58.8312 45.0078H22.1662C17.1039 45.0078 13 49.1117 13 54.1741C13 59.2364 17.1039 63.3403 22.1662 63.3403H58.8312C63.8935 63.3403 67.9974 59.2364 67.9974 54.1741C67.9974 49.1117 63.8935 45.0078 58.8312 45.0078Z" fill="#3E8672"/>
<path d="M58.8312 63.3379H22.1662C17.1039 63.3379 13 67.4418 13 72.5041C13 77.5665 17.1039 81.6704 22.1662 81.6704H58.8312C63.8935 81.6704 67.9974 77.5665 67.9974 72.5041C67.9974 67.4418 63.8935 63.3379 58.8312 63.3379Z" fill="#3E8672"/>
<path d="M58.8312 81.668H22.1662C17.1039 81.668 13 85.7718 13 90.8342C13 95.8966 17.1039 100 22.1662 100H58.8312C63.8935 100 67.9974 95.8966 67.9974 90.8342C67.9974 85.7718 63.8935 81.668 58.8312 81.668Z" fill="#3E8672"/>
<path d="M99.9569 88.3666C99.032 89.1749 97.9589 89.7783 96.7224 90.1591C95.1657 90.6679 93.3732 90.835 91.4237 90.6831C81.8407 89.9309 68.2439 81.4897 56.5588 68.1211C44.8737 54.7532 38.3108 40.1326 38.848 30.5347C38.9577 28.5826 39.3631 26.8283 40.0756 25.3539C40.5566 24.3551 41.1436 23.477 41.916 22.7409L42.7886 21.9783C51.1352 15.7166 70.1102 24.7822 85.7151 42.6352C101.321 60.4883 107.752 80.4872 100.43 87.9221C100.289 88.0765 100.114 88.2291 99.9569 88.3666Z" stroke="#333333" stroke-width="2" stroke-miterlimit="10"/>
<path d="M99.9571 88.3659L94.4957 93.1394C94.321 93.292 94.1464 93.4446 93.9566 93.5802C85.6144 99.7767 66.6722 90.7133 51.0969 72.8946C35.5223 55.076 29.0584 35.0748 36.3148 27.6362L36.4548 27.5141C36.5613 27.3901 36.7013 27.2681 36.823 27.1614C36.9453 27.0546 37.0676 26.9478 37.2051 26.8583L41.9162 22.7402C41.1432 23.4763 40.5568 24.3544 40.0751 25.3533C39.3633 26.8276 38.9579 28.582 38.8482 30.5341C38.311 40.1319 44.8581 54.7355 56.559 68.1205C68.2592 81.506 81.8402 89.9302 91.4239 90.6824C93.3728 90.8343 95.1659 90.6672 96.722 90.1584C97.959 89.7776 99.0322 89.1742 99.9571 88.3659Z" stroke="#333333" stroke-width="2" stroke-miterlimit="10"/>
<path d="M20.9922 62.6582H42.7445" stroke="#333333" stroke-width="2" stroke-linecap="round"/>
<path d="M21.3076 81.5742H39.9074H58.8225" stroke="#333333" stroke-width="2" stroke-linecap="round"/>
</svg>
