<svg width="120" height="120" viewBox="0 0 120 120" fill="none" xmlns="http://www.w3.org/2000/svg">
<path d="M58.0284 32.7972C59.2597 30.6639 62.3394 30.6639 63.5707 32.7972L93.7779 85.1169C95.0092 87.25 93.4694 89.9168 91.006 89.9168H30.593C28.1297 89.9168 26.5899 87.25 27.8212 85.1169L58.0284 32.7972Z" fill="#939FE1"/>
<path d="M104.319 87.2003C104.319 94.2908 98.7105 100 91.8395 100C84.9685 100 79.3596 94.2908 79.3596 87.2003C79.3596 80.1098 84.9685 74.4004 91.8395 74.4004C98.7105 74.4004 104.319 80.1098 104.319 87.2003Z" stroke="#333333" stroke-width="2"/>
<path d="M40.9598 87.2003C40.9598 94.2908 35.3509 100 28.4799 100C21.6089 100 16 94.2908 16 87.2003C16 80.1098 21.6089 74.4004 28.4799 74.4004C35.3509 74.4004 40.9598 80.1098 40.9598 87.2003Z" stroke="#333333" stroke-width="2"/>
<path d="M61.1193 44.9598C68.0118 44.9598 73.5992 39.3724 73.5992 32.4799C73.5992 25.5874 68.0118 20 61.1193 20C54.2269 20 48.6394 25.5874 48.6394 32.4799C48.6394 39.3724 54.2269 44.9598 61.1193 44.9598Z" stroke="#333333" stroke-width="2"/>
<path d="M54.0796 84.3184H64.9595" stroke="#333333" stroke-width="2" stroke-linecap="round"/>
</svg>
