<svg width="120" height="120" viewBox="0 0 120 120" fill="none" xmlns="http://www.w3.org/2000/svg">
<path d="M76.9076 21.8438H41.5325C35.6345 21.8438 30.8533 26.625 30.8533 32.523V79.9122C30.8533 85.8102 35.6345 90.5915 41.5325 90.5915H76.9076C82.8056 90.5915 87.5868 85.8102 87.5868 79.9122V32.523C87.5868 26.625 82.8056 21.8438 76.9076 21.8438Z" fill="#939FE1"/>
<path d="M32.8552 31.516L42.5333 21.8379H66.2279" stroke="#333333" stroke-width="2" stroke-linecap="round"/>
<path d="M63.3534 18L66.9036 21.7996L63.0891 25.3525" stroke="black" stroke-width="2" stroke-linecap="round" stroke-linejoin="round"/>
<path d="M55.0487 27.8477L45.3706 37.5257H21.676" stroke="#333333" stroke-width="2" stroke-linecap="round"/>
<path d="M24.5509 41.3545L21 37.5549L24.8152 34.002" stroke="black" stroke-width="2" stroke-linecap="round" stroke-linejoin="round"/>
<path d="M89.2529 77.5781C96.2568 77.5781 101.935 71.9003 101.935 64.8965C101.935 57.8926 96.2568 52.2148 89.2529 52.2148C82.249 52.2148 76.5713 57.8926 76.5713 64.8965C76.5713 71.9003 82.249 77.5781 89.2529 77.5781Z" stroke="#333333" stroke-width="2"/>
<path d="M89.2529 64.6752C87.4 64.6752 85.8989 63.3884 85.8989 61.8005C85.8989 60.212 87.4 58.9258 89.2529 58.9258C91.1057 58.9258 92.6068 60.212 92.6068 61.8005" stroke="#333333" stroke-width="2" stroke-linecap="round" stroke-linejoin="round"/>
<path d="M89.2529 64.6777C91.1057 64.6777 92.6068 65.9639 92.6068 67.5518C92.6068 69.1403 91.1057 70.4265 89.2529 70.4265C87.4 70.4265 85.8989 69.137 85.8989 67.5491" stroke="#333333" stroke-width="2" stroke-linecap="round" stroke-linejoin="round"/>
<path d="M89.2524 58.9327V57.5391" stroke="#333333" stroke-width="2" stroke-linecap="round" stroke-linejoin="round"/>
<path d="M89.2524 71.8149V70.4219" stroke="#333333" stroke-width="2" stroke-linecap="round" stroke-linejoin="round"/>
<path d="M45.5371 53.207H73.5702" stroke="#333333" stroke-width="2" stroke-linecap="round"/>
<path d="M50.5425 60.5566H68.5637" stroke="#333333" stroke-width="2" stroke-linecap="round"/>
<path d="M79.5769 86.615C79.5769 94.7366 73.2401 101.361 65.2947 101.749C65.0611 101.763 64.8135 101.763 64.5659 101.763H64.4698C56.2087 101.707 49.5415 94.9582 49.5415 86.615C49.5415 78.2711 56.1947 71.5499 64.4424 71.4805H64.5659C64.8135 71.4805 65.0611 71.4805 65.3081 71.4938C73.2535 71.8963 79.5769 78.5068 79.5769 86.615Z" stroke="black" stroke-width="2" stroke-miterlimit="10"/>
<path d="M79.5774 86.614C79.5774 94.6809 73.3253 101.271 65.4554 101.739C65.3506 101.746 65.2511 101.775 65.161 101.829C64.9815 101.936 64.7559 101.944 64.579 101.833C64.5416 101.809 64.5056 101.786 64.4702 101.762C59.4116 98.6295 56.0576 93.0169 56.0576 86.614C56.0576 80.2105 59.4116 74.6119 64.4428 71.4795C64.4876 71.4521 64.5329 71.4248 64.5783 71.3981C64.7572 71.2906 64.9841 71.288 65.1624 71.3974C65.2605 71.4575 65.3706 71.4962 65.4861 71.5035C73.348 71.9935 79.5774 78.5665 79.5774 86.614Z" stroke="#333333" stroke-width="2" stroke-miterlimit="10" stroke-linejoin="round"/>
<path d="M73.68 86.6154C73.68 93.0043 70.326 98.6175 65.2947 101.749C65.238 101.784 65.1813 101.818 65.1239 101.852C64.9657 101.946 64.7668 101.95 64.6099 101.853C64.5158 101.796 64.4104 101.763 64.3002 101.761C56.1173 101.616 49.5415 94.9012 49.5415 86.6154C49.5415 78.3276 56.1059 71.6397 64.2775 71.4829C64.385 71.4809 64.4878 71.4528 64.5799 71.3974C64.7561 71.2927 64.9797 71.2873 65.1546 71.3941C65.2073 71.4262 65.2587 71.4595 65.3081 71.4949C70.3394 74.6266 73.68 80.2259 73.68 86.6154Z" stroke="#333333" stroke-width="2" stroke-miterlimit="10" stroke-linejoin="round"/>
<path d="M64.8684 71.8281V102" stroke="#333333" stroke-width="2" stroke-miterlimit="10"/>
<path d="M49.5415 86.6172H79.5355" stroke="#333333" stroke-width="2" stroke-miterlimit="10"/>
<path d="M52.0576 95.0176H76.7868" stroke="#333333" stroke-width="2" stroke-miterlimit="10"/>
<path d="M52.0576 78.1895H76.7868" stroke="#333333" stroke-width="2" stroke-miterlimit="10"/>
</svg>
