<svg width="150" height="150" viewBox="0 0 150 150" fill="none" xmlns="http://www.w3.org/2000/svg">
  <mask id="mask0_202_5078" style="mask-type:luminance" maskUnits="userSpaceOnUse" x="23" y="10"
    width="105" height="140">
    <path d="M127.948 10H23V150H127.948V10Z" fill="white" />
  </mask>
  <g mask="url(#mask0_202_5078)">
    <path
      d="M74.6777 61.2227C73.7152 61.2227 72.9277 62.0102 72.9277 62.9727V65.1777C67.9752 66.0177 64.1777 70.3052 64.1777 75.4852C64.1777 80.6652 67.9752 84.9702 72.9277 85.7927V99.5302C70.0927 98.6377 68.0277 96.0302 68.0277 92.9152C68.0277 91.9527 67.2402 91.1652 66.2777 91.1652C65.3152 91.1652 64.5277 91.9527 64.5277 92.9152C64.5277 97.9727 68.1327 102.19 72.9277 103.17V105.428C72.9277 106.39 73.7152 107.178 74.6777 107.178C75.6402 107.178 76.4277 106.39 76.4277 105.428V103.275C81.5552 102.593 85.5277 98.2002 85.5277 92.9152C85.5277 87.6302 81.5552 83.2377 76.4277 82.5552V68.7652C79.4377 69.5352 81.6777 72.2477 81.6777 75.4852C81.6777 76.4477 82.4652 77.2352 83.4277 77.2352C84.3902 77.2352 85.1777 76.4477 85.1777 75.4852C85.1777 70.3052 81.3802 66.0002 76.4277 65.1777V62.9727C76.4277 62.0102 75.6402 61.2227 74.6777 61.2227ZM67.6777 75.4852C67.6777 72.2477 69.9177 69.5352 72.9277 68.7652V82.2052C69.9177 81.4352 67.6777 78.7227 67.6777 75.4852ZM82.0277 92.9327C82.0277 96.2927 79.6127 99.1102 76.4277 99.7577V86.1077C79.6127 86.7552 82.0277 89.5727 82.0277 92.9327Z"
      fill="white" />
    <path
      d="M99.8071 119.27H54.1321L57.7196 115.682C58.4021 115 58.4021 113.897 57.7196 113.215C57.0371 112.533 55.9346 112.533 55.2521 113.215L48.6896 119.778C48.0071 120.46 48.0071 121.562 48.6896 122.245L55.2521 128.807C55.5846 129.14 56.0396 129.315 56.4946 129.315C56.9496 129.315 57.3871 129.14 57.7371 128.807C58.4196 128.125 58.4196 127.023 57.7371 126.34L54.1496 122.753H99.8246C100.787 122.753 101.575 121.965 101.575 121.003C101.575 120.04 100.787 119.253 99.8246 119.253L99.8071 119.27Z"
      fill="white" />
    <path
      d="M94.4709 41.5353C93.7884 40.8528 92.6859 40.8528 92.0034 41.5353C91.3209 42.2178 91.3209 43.3203 92.0034 44.0028L95.5909 47.5903H49.8984C48.9359 47.5903 48.1484 48.3778 48.1484 49.3403C48.1484 50.3028 48.9359 51.0903 49.8984 51.0903H95.5734L91.9859 54.6778C91.3034 55.3603 91.3034 56.4628 91.9859 57.1453C92.3184 57.4778 92.7734 57.6528 93.2284 57.6528C93.6834 57.6528 94.1209 57.4778 94.4709 57.1453L101.033 50.5828C101.716 49.9003 101.716 48.7978 101.033 48.1153L94.4709 41.5528V41.5353Z"
      fill="white" />
    <path
      d="M126.197 17.4375H117.885V11.75C117.885 10.7875 117.097 10 116.135 10C115.172 10 114.385 10.7875 114.385 11.75V17.4375H110.447V11.75C110.447 10.7875 109.66 10 108.697 10C107.735 10 106.947 10.7875 106.947 11.75V17.4375H93.1225V11.75C93.1225 10.7875 92.335 10 91.3725 10C90.41 10 89.6225 10.7875 89.6225 11.75V17.4375H85.685V11.75C85.685 10.7875 84.8975 10 83.935 10C82.9725 10 82.185 10.7875 82.185 11.75V17.4375H68.36V11.75C68.36 10.7875 67.5725 10 66.61 10C65.6475 10 64.86 10.7875 64.86 11.75V17.4375H60.9225V11.75C60.9225 10.7875 60.135 10 59.1725 10C58.21 10 57.4225 10.7875 57.4225 11.75V17.4375H43.5975V11.75C43.5975 10.7875 42.81 10 41.8475 10C40.885 10 40.0975 10.7875 40.0975 11.75V17.4375H36.16V11.75C36.16 10.7875 35.3725 10 34.41 10C33.4475 10 32.66 10.7875 32.66 11.75V17.4375H24.75C23.7875 17.4375 23 18.225 23 19.1875V148.25C23 149.213 23.7875 150 24.75 150H126.197C127.16 150 127.947 149.213 127.947 148.25V19.1875C127.947 18.225 127.16 17.4375 126.197 17.4375ZM124.447 146.5H26.5V20.9375H32.625V26.625C32.625 27.5875 33.4125 28.375 34.375 28.375C35.3375 28.375 36.125 27.5875 36.125 26.625V20.9375H40.0625V26.625C40.0625 27.5875 40.85 28.375 41.8125 28.375C42.775 28.375 43.5625 27.5875 43.5625 26.625V20.9375H57.3875V26.625C57.3875 27.5875 58.175 28.375 59.1375 28.375C60.1 28.375 60.8875 27.5875 60.8875 26.625V20.9375H64.825V26.625C64.825 27.5875 65.6125 28.375 66.575 28.375C67.5375 28.375 68.325 27.5875 68.325 26.625V20.9375H82.15V26.625C82.15 27.5875 82.9375 28.375 83.9 28.375C84.8625 28.375 85.65 27.5875 85.65 26.625V20.9375H89.5875V26.625C89.5875 27.5875 90.375 28.375 91.3375 28.375C92.3 28.375 93.0875 27.5875 93.0875 26.625V20.9375H106.913V26.625C106.913 27.5875 107.701 28.375 108.663 28.375C109.626 28.375 110.413 27.5875 110.413 26.625V20.9375H114.35V26.625C114.35 27.5875 115.137 28.375 116.1 28.375C117.062 28.375 117.85 27.5875 117.85 26.625V20.9375H124.413V146.5H124.447Z"
      fill="white" />
  </g>
</svg>