<svg width="150" height="150" viewBox="0 0 150 150" fill="none" xmlns="http://www.w3.org/2000/svg">
  <mask id="mask0_202_5087" style="mask-type:luminance" maskUnits="userSpaceOnUse" x="24" y="9"
    width="102" height="141">
    <path d="M126 9H24V150H126V9Z" fill="white" />
  </mask>
  <g mask="url(#mask0_202_5087)">
    <path
      d="M125.863 107.035C125.863 90.8125 112.884 77.6175 96.795 77.285V24.785C110.434 25.695 121.241 37.07 121.241 50.9825C121.241 51.945 122.023 52.7325 122.979 52.7325C123.934 52.7325 124.716 51.945 124.716 50.9825C124.716 35.145 112.345 22.2125 96.795 21.285V10.75C96.795 9.7875 96.0131 9 95.0575 9C94.1019 9 93.32 9.7875 93.32 10.75V21.285C77.7694 22.195 65.3984 35.145 65.3984 50.9825C65.3984 66.82 77.7694 79.77 93.32 80.68V133.162C80.2192 131.727 70.0027 120.562 70.0027 107.052C70.0027 106.09 69.2209 105.302 68.2652 105.302C67.3096 105.302 66.5277 106.09 66.5277 107.052C66.5277 122.505 78.308 135.227 93.32 136.68V147.268C93.32 148.23 94.1019 149.018 95.0575 149.018C96.0131 149.018 96.795 148.23 96.795 147.268V136.802C112.866 136.47 125.863 123.275 125.863 107.052V107.035ZM68.8734 50.965C68.8734 37.07 79.698 25.6775 93.32 24.7675V77.145C79.6806 76.235 68.8734 64.86 68.8734 50.9475V50.965ZM96.795 133.268V80.7675C110.955 81.1 122.388 92.72 122.388 107.017C122.388 121.315 110.955 132.935 96.795 133.268Z"
      fill="white" />
    <path
      d="M45.7983 9.52414C45.1381 8.85914 43.9913 8.85914 43.3484 9.52414L25.5043 27.4791C24.8267 28.1616 24.8267 29.2641 25.5043 29.9466C26.1819 30.6291 27.2766 30.6291 27.9542 29.9466L42.8446 14.9666V147.232C42.8446 148.194 43.6264 148.982 44.5821 148.982C45.5377 148.982 46.3196 148.194 46.3196 147.232V14.9841L61.1926 29.9641C61.5227 30.2966 61.9745 30.4716 62.4262 30.4716C62.878 30.4716 63.3123 30.2966 63.6598 29.9641C64.3374 29.2816 64.3374 28.1791 63.6598 27.4966L45.7983 9.52414Z"
      fill="white" />
  </g>
</svg>