<svg width="150" height="150" viewBox="0 0 150 150" fill="none" xmlns="http://www.w3.org/2000/svg">
  <g clip-path="url(#clip0_202_5066)">
    <mask id="mask0_202_5066" style="mask-type:luminance" maskUnits="userSpaceOnUse" x="0" y="0"
      width="150" height="150">
      <path d="M150 0H0V150H150V0Z" fill="white" />
    </mask>
    <g mask="url(#mask0_202_5066)">
      <mask id="mask1_202_5066" style="mask-type:luminance" maskUnits="userSpaceOnUse" x="3" y="10"
        width="144" height="141">
        <path d="M146.419 10H3V150.077H146.419V10Z" fill="white" />
      </mask>
      <g mask="url(#mask1_202_5066)">
        <path
          d="M75.1241 35.9746C74.1516 35.9746 73.3559 36.7703 73.3559 37.7428V43.5779C63.6308 44.462 56.0098 52.6311 56.0098 62.5507C56.0098 72.4703 63.6485 80.6394 73.3559 81.5235V112.449C65.9295 111.265 60.2358 104.864 60.2358 97.1367C60.2358 96.1642 59.4402 95.3685 58.4676 95.3685C57.4951 95.3685 56.6994 96.1642 56.6994 97.1367C56.6994 106.809 63.9668 114.801 73.3559 116.021V121.962C73.3559 122.935 74.1516 123.731 75.1241 123.731C76.0966 123.731 76.8923 122.935 76.8923 121.962V116.163C86.9357 115.614 94.9457 107.304 94.9457 97.1544C94.9457 87.0049 86.9357 78.6944 76.8923 78.1462V47.1497C84.6547 48.0338 90.702 54.5938 90.702 62.5684C90.702 63.5409 91.4977 64.3366 92.4702 64.3366C93.4427 64.3366 94.2384 63.5409 94.2384 62.5684C94.2384 52.6488 86.5998 44.4797 76.8923 43.5956V37.7605C76.8923 36.788 76.0966 35.9923 75.1241 35.9923V35.9746ZM59.5462 62.5507C59.5462 54.5761 65.5935 48.0161 73.3559 47.132V77.9694C65.5935 77.0853 59.5462 70.5253 59.5462 62.5507ZM91.4269 97.1367C91.4269 105.341 85.0084 112.06 76.91 112.609V81.665C85.0084 82.2131 91.4269 88.9323 91.4269 97.1367Z"
          fill="white" />
        <path
          d="M145.411 58.2189C144.527 57.7945 143.466 58.1658 143.059 59.0499L141.945 61.3663C133.617 31.0239 106.263 10 74.7178 10C43.173 10 14.6166 31.9257 6.96026 63.3113C6.73039 64.2661 7.3139 65.221 8.25105 65.4508C9.18819 65.6807 10.1607 65.0972 10.3906 64.16C17.6756 34.3481 44.1279 13.5364 74.7178 13.5364C105.308 13.5364 130.735 33.5701 138.586 62.4449L136.411 61.384C135.527 60.9596 134.466 61.3309 134.059 62.215C133.635 63.0991 134.006 64.1601 134.873 64.5667L140.955 67.502C141.203 67.6257 141.468 67.6788 141.715 67.6788C141.91 67.6788 142.104 67.6434 142.299 67.5727C142.741 67.4135 143.112 67.0953 143.307 66.6709L146.242 60.5529C146.666 59.6688 146.295 58.6079 145.411 58.2012V58.2189Z"
          fill="white" />
        <path
          d="M141.15 94.7155C140.195 94.468 139.24 95.0515 139.01 96.0063C131.707 125.765 105.255 146.542 74.7006 146.542C44.146 146.542 18.6132 126.455 10.7978 97.5093L13.1141 98.8708C13.9628 99.3659 15.0414 99.083 15.5365 98.2519C16.0316 97.4032 15.7487 96.3246 14.9177 95.8295L9.08259 92.3992C8.67591 92.1693 8.19849 92.0986 7.73876 92.2224C7.27903 92.3461 6.89002 92.6291 6.66016 93.0357L3.24753 98.8885C2.75243 99.7372 3.03534 100.816 3.88408 101.311C4.16699 101.47 4.46759 101.558 4.76818 101.558C5.36937 101.558 5.97056 101.24 6.28883 100.674L7.45585 98.6763C15.7664 129.036 43.1559 150.078 74.7006 150.078C106.245 150.078 134.749 128.188 142.44 96.8551C142.67 95.9002 142.087 94.9454 141.15 94.7155Z"
          fill="white" />
      </g>
    </g>
  </g>
  <defs>
    <clipPath id="clip0_202_5066">
      <rect width="150" height="150" fill="white" />
    </clipPath>
  </defs>
</svg>