<svg width="14" height="14" viewBox="0 0 14 14" fill="none" xmlns="http://www.w3.org/2000/svg">
<path d="M6.49935 10.1667H7.49935V6.33342H6.49935V10.1667ZM6.99935 5.19241C7.15191 5.19241 7.27979 5.1408 7.38302 5.03758C7.48624 4.93436 7.53785 4.80647 7.53785 4.65391C7.53785 4.50136 7.48624 4.37347 7.38302 4.27025C7.27979 4.16714 7.15191 4.11558 6.99935 4.11558C6.84679 4.11558 6.7189 4.16714 6.61568 4.27025C6.51246 4.37347 6.46085 4.50136 6.46085 4.65391C6.46085 4.80647 6.51246 4.93436 6.61568 5.03758C6.7189 5.1408 6.84679 5.19241 6.99935 5.19241ZM7.00052 13.3334C6.12452 13.3334 5.30113 13.1672 4.53035 12.8347C3.75957 12.5023 3.08913 12.0511 2.51902 11.4812C1.9489 10.9114 1.49752 10.2412 1.16485 9.47075C0.832293 8.7003 0.666016 7.87714 0.666016 7.00125C0.666016 6.12525 0.832238 5.30186 1.16468 4.53108C1.49713 3.7603 1.94829 3.08986 2.51818 2.51975C3.08807 1.94964 3.75824 1.49825 4.52868 1.16558C5.29913 0.833026 6.12229 0.666748 6.99818 0.666748C7.87418 0.666748 8.69757 0.83297 9.46835 1.16541C10.2391 1.49786 10.9096 1.94903 11.4797 2.51891C12.0498 3.0888 12.5012 3.75897 12.8338 4.52942C13.1664 5.29986 13.3327 6.12303 13.3327 6.99891C13.3327 7.87492 13.1665 8.6983 12.834 9.46908C12.5016 10.2399 12.0504 10.9103 11.4805 11.4804C10.9106 12.0505 10.2405 12.5019 9.47002 12.8346C8.69957 13.1671 7.87641 13.3334 7.00052 13.3334ZM6.99935 12.3334C8.48824 12.3334 9.74935 11.8167 10.7827 10.7834C11.816 9.75008 12.3327 8.48897 12.3327 7.00008C12.3327 5.51119 11.816 4.25008 10.7827 3.21675C9.74935 2.18341 8.48824 1.66675 6.99935 1.66675C5.51046 1.66675 4.24935 2.18341 3.21602 3.21675C2.18268 4.25008 1.66602 5.51119 1.66602 7.00008C1.66602 8.48897 2.18268 9.75008 3.21602 10.7834C4.24935 11.8167 5.51046 12.3334 6.99935 12.3334Z" fill="#999999"/>
</svg>
