<svg width="40" height="41" viewBox="0 0 40 41" fill="none" xmlns="http://www.w3.org/2000/svg">
<path d="M20 0.5C8.955 0.5 0 9.455 0 20.5C0 31.545 8.955 40.5 20 40.5C31.045 40.5 40 31.545 40 20.5C40 9.455 31.045 0.5 20 0.5ZM12.4933 9.505C13.8967 9.505 14.8317 10.44 14.8317 11.6867C14.8317 12.9333 13.8967 13.8683 12.3383 13.8683C10.935 13.87 10 12.9333 10 11.6867C10 10.44 10.935 9.505 12.4933 9.505ZM15 28.8333H10V15.5H15V28.8333ZM31.6667 28.8333H26.96V21.5467C26.96 19.5317 25.705 19.0667 25.235 19.0667C24.765 19.0667 23.195 19.3767 23.195 21.5467C23.195 21.8567 23.195 28.8333 23.195 28.8333H18.3333V15.5H23.1967V17.36C23.8233 16.275 25.0783 15.5 27.4317 15.5C29.785 15.5 31.6667 17.36 31.6667 21.5467V28.8333Z" fill="#2867B2"/>
</svg>
