<svg fill="none" height="165" viewBox="0 0 528 165" width="528" xmlns="http://www.w3.org/2000/svg"
  xmlns:xlink="http://www.w3.org/1999/xlink">
  <linearGradient id="a" gradientUnits="userSpaceOnUse" x1="305" x2="284" y1=".000003" y2="165">
    <stop offset="0" stop-color="#d5fff4" stop-opacity=".3" />
    <stop offset="1" stop-color="#fff" stop-opacity="0" />
  </linearGradient>
  <path
    d="m.5 20c0-10.76955 8.73045-19.5 19.5-19.5h488c10.77 0 19.5 8.73045 19.5 19.5v125c0 10.77-8.73 19.5-19.5 19.5h-488c-10.76954 0-19.5-8.73-19.5-19.5z"
    fill="#98e3ce" fill-opacity=".5" stroke="url(#a)">
    <animate id="bg_anim1" attributeName="fill" dur="800ms" fill="freeze" begin="2s; bg_anim3.end"
      to="#E3F4F0"
    />
    <animate id="bg_anim2" attributeName="fill" dur="800ms" fill="freeze" begin="bg_anim1.end + 2s"
      to="#98e3ce"
    />
    <animate id="bg_anim3" attributeName="fill" dur="800ms" fill="freeze"
      begin="bg_anim2.end + 8.4s"
      to="#98e3ce"
    />
  </path>
  <g fill="#004d3b">
    <path
      d="m33.7195 30.2536h-1.8594c-.053-.305-.1508-.5751-.2933-.8104-.1426-.2387-.3199-.4408-.532-.6066-.2121-.1657-.4541-.29-.7259-.3728-.2684-.0862-.5584-.1293-.87-.1293-.5535 0-1.044.1392-1.4716.4176-.4275.2751-.7623.6795-1.0042 1.2131-.242.5303-.363 1.1783-.363 1.9439 0 .7789.121 1.4351.363 1.9687.2452.5303.58.9314 1.0042 1.2032.4276.2684.9165.4027 1.4666.4027.305 0 .59-.0398.8552-.1194.2684-.0828.5087-.2038.7208-.3629.2155-.1591.3961-.3546.5419-.5866.1492-.232.2519-.4972.3083-.7955l1.8594.01c-.0696.4839-.2204.9379-.4525 1.3622-.2286.4242-.5286.7987-.8998 1.1236-.3712.3215-.8054.5733-1.3026.7556-.4971.179-1.049.2685-1.6555.2685-.8949 0-1.6937-.2071-2.3963-.6214-.7027-.4143-1.2562-1.0126-1.6605-1.7948-.4044-.7822-.6066-1.7202-.6066-2.8139 0-1.0971.2039-2.035.6115-2.8139.4077-.7822.9629-1.3805 1.6655-1.7948.7027-.4143 1.4981-.6214 2.3864-.6214.5668 0 1.0937.0795 1.581.2386.4872.1591.9214.3928 1.3025.701.3812.3049.6944.6795.9396 1.1236.2486.4408.411.9446.4873 1.5114zm3.807 6.9005c-.4839 0-.9198-.0862-1.3076-.2585-.3844-.1757-.6894-.4342-.9147-.7756-.2221-.3414-.3331-.7623-.3331-1.2628 0-.4308.0795-.7871.2386-1.0688.1591-.2818.3762-.5072.6513-.6762s.585-.2966.9297-.3828c.348-.0895.7076-.1541 1.0788-.1939.4474-.0464.8104-.0878 1.0888-.1243.2784-.0398.4806-.0994.6065-.179.1293-.0828.1939-.2104.1939-.3828v-.0298c0-.3745-.111-.6645-.3331-.87s-.5419-.3083-.9595-.3083c-.4408 0-.7905.0962-1.049.2884-.2552.1922-.4276.4193-.5171.6811l-1.6804-.2386c.1326-.4641.3514-.8518.6563-1.1634.3049-.3149.6778-.5502 1.1186-.706.4408-.159.928-.2386 1.4616-.2386.3679 0 .7342.0431 1.0988.1293.3645.0861.6976.2287.9993.4275.3016.1956.5435.4624.7258.8004.1856.3381.2784.7607.2784 1.2678v5.1108h-1.7301v-1.049h-.0597c-.1093.2121-.2635.411-.4623.5966-.1956.1823-.4425.3298-.7408.4425-.295.1093-.6413.164-1.039.164zm.4673-1.3224c.3613 0 .6745-.0713.9396-.2138.2652-.1458.469-.3381.6115-.5767.1459-.2386.2188-.4988.2188-.7805v-.8999c-.0564.0464-.1525.0895-.2884.1293-.1326.0397-.2817.0745-.4474.1044-.1657.0298-.3298.0563-.4922.0795s-.3033.0431-.4226.0597c-.2685.0364-.5088.0961-.7209.1789-.2121.0829-.3795.1989-.5021.3481-.1226.1458-.184.3347-.184.5667 0 .3315.121.5817.363.7507.2419.1691.5502.2536.9247.2536zm9.1875-6.4681v1.3921h-4.3899v-1.3921zm-3.3061-1.8295h1.7997v7.169c0 .242.0365.4276.1094.5568.0762.126.1756.2122.2983.2586.1226.0464.2585.0696.4076.0696.1127 0 .2155-.0083.3083-.0249.0961-.0166.169-.0315.2187-.0447l.3033 1.4069c-.0961.0332-.2337.0696-.4127.1094-.1756.0398-.3911.063-.6463.0696-.4507.0133-.8567-.0547-1.218-.2038-.3613-.1525-.648-.3878-.8601-.706-.2088-.3182-.3115-.7159-.3082-1.1932zm7.0087 9.62c-.4839 0-.9198-.0862-1.3076-.2585-.3844-.1757-.6893-.4342-.9147-.7756-.2221-.3414-.3331-.7623-.3331-1.2628 0-.4308.0795-.7871.2386-1.0688.1591-.2818.3762-.5072.6513-.6762s.585-.2966.9297-.3828c.348-.0895.7076-.1541 1.0788-.1939.4475-.0464.8104-.0878 1.0888-.1243.2784-.0398.4806-.0994.6065-.179.1293-.0828.1939-.2104.1939-.3828v-.0298c0-.3745-.111-.6645-.3331-.87-.222-.2055-.5419-.3083-.9595-.3083-.4408 0-.7905.0962-1.049.2884-.2552.1922-.4276.4193-.517.6811l-1.6804-.2386c.1325-.4641.3513-.8518.6562-1.1634.3049-.3149.6778-.5502 1.1186-.706.4408-.159.928-.2386 1.4617-.2386.3679 0 .7341.0431 1.0987.1293.3646.0861.6977.2287.9993.4275.3016.1956.5435.4624.7258.8004.1856.3381.2784.7607.2784 1.2678v5.1108h-1.7301v-1.049h-.0596c-.1094.2121-.2635.411-.4624.5966-.1955.1823-.4425.3298-.7408.4425-.2949.1093-.6413.164-1.039.164zm.4673-1.3224c.3613 0 .6745-.0713.9396-.2138.2652-.1458.469-.3381.6115-.5767.1459-.2386.2188-.4988.2188-.7805v-.8999c-.0564.0464-.1525.0895-.2884.1293-.1325.0397-.2817.0745-.4474.1044-.1657.0298-.3298.0563-.4922.0795s-.3033.0431-.4226.0597c-.2684.0364-.5087.0961-.7209.1789-.2121.0829-.3795.1989-.5021.3481-.1226.1458-.1839.3347-.1839.5667 0 .3315.1209.5817.3629.7507.2419.1691.5502.2536.9247.2536zm7.174-9.0135v10.1818h-1.7997v-10.1818zm5.1817 10.3309c-.7458 0-1.3921-.164-1.939-.4921-.5468-.3282-.9711-.7872-1.2727-1.3772-.2983-.5899-.4474-1.2793-.4474-2.0682 0-.7888.1491-1.4798.4474-2.0731.3016-.5933.7259-1.054 1.2727-1.3821.5469-.3281 1.1932-.4922 1.939-.4922.7457 0 1.392.1641 1.9389.4922.5468.3281.9694.7888 1.2677 1.3821.3016.5933.4524 1.2843.4524 2.0731 0 .7889-.1508 1.4783-.4524 2.0682-.2983.59-.7209 1.049-1.2677 1.3772-.5469.3281-1.1932.4921-1.9389.4921zm.0099-1.4417c.4044 0 .7424-.111 1.0142-.3331.2718-.2254.474-.527.6065-.9048.1359-.3779.2039-.7988.2039-1.2628 0-.4674-.068-.8899-.2039-1.2678-.1325-.3811-.3347-.6844-.6065-.9098s-.6098-.338-1.0142-.338c-.4143 0-.759.1126-1.0341.338-.2718.2254-.4756.5287-.6115.9098-.1326.3779-.1989.8004-.1989 1.2678 0 .464.0663.8849.1989 1.2628.1359.3778.3397.6794.6115.9048.2751.2221.6198.3331 1.0341.3331zm8.4977 4.3153c-.6463 0-1.2015-.0878-1.6655-.2635-.464-.1723-.8369-.4043-1.1186-.696s-.4773-.6148-.5866-.9694l1.6207-.3928c.0729.1491.179.2966.3182.4425.1392.1491.3264.2717.5618.3679.2386.0994.5385.1491.8998.1491.5104 0 .933-.1243 1.2678-.3729.3347-.2452.5021-.6496.5021-1.213v-1.4468h-.0895c-.0928.1856-.2287.3762-.4077.5718-.1756.1955-.4093.3596-.7009.4922-.2884.1325-.6513.1988-1.0888.1988-.5867 0-1.1186-.1375-1.5959-.4126-.474-.2784-.8518-.6927-1.1335-1.2429-.2784-.5535-.4176-1.2462-.4176-2.0781 0-.8386.1392-1.5462.4176-2.1229.2817-.58.6612-1.0192 1.1385-1.3175.4772-.3016 1.0092-.4524 1.5958-.4524.4475 0 .8154.0762 1.1037.2287.2917.1491.5237.3298.6961.5419.1723.2088.3032.406.3927.5916h.0994v-1.2628h1.7749v7.7607c0 .6529-.1558 1.1932-.4673 1.6207-.3116.4276-.7375.7474-1.2777.9595-.5403.2122-1.1534.3182-1.8395.3182zm.0149-4.544c.3812 0 .706-.0928.9744-.2784.2685-.1856.4723-.4524.6115-.8004.1392-.3481.2088-.7657.2088-1.2529 0-.4806-.0696-.9015-.2088-1.2628-.1358-.3612-.338-.6413-.6065-.8402-.2651-.2021-.5916-.3032-.9794-.3032-.401 0-.7358.1044-1.0043.3132-.2684.2088-.4706.4955-.6065.8601-.1359.3612-.2038.7722-.2038 1.2329 0 .4673.0679.8767.2038 1.228.1392.348.343.6198.6115.8153.2718.1923.6049.2884.9993.2884z" />
    <path
      d="m191.789 36v-8h3.063c.578 0 1.058.0911 1.441.2734.385.1797.673.4258.863.7383.193.3125.289.6667.289 1.0625 0 .3255-.062.6042-.187.836-.125.2291-.293.4153-.504.5585-.211.1433-.447.2461-.707.3086v.0782c.284.0156.556.1028.816.2617.263.1562.478.3776.645.664.166.2865.25.6329.25 1.0391 0 .4141-.1.7865-.301 1.1172-.2.3281-.503.5872-.906.7773-.404.1901-.912.2852-1.524.2852zm1.449-1.2109h1.559c.526 0 .905-.1003 1.137-.3008.234-.2031.351-.4636.351-.7813 0-.2369-.058-.4505-.176-.6406-.117-.1927-.283-.3437-.5-.4531-.216-.112-.474-.168-.773-.168h-1.598zm0-3.3868h1.434c.25 0 .475-.0455.676-.1367.2-.0937.358-.2252.472-.3945.118-.1719.176-.375.176-.6094 0-.3099-.109-.5651-.328-.7656-.216-.2005-.538-.3008-.965-.3008h-1.465zm12.929.5977c0 .862-.161 1.6003-.484 2.2148-.321.612-.758 1.0808-1.313 1.4063-.552.3255-1.178.4883-1.879.4883-.7 0-1.328-.1628-1.883-.4883-.552-.3281-.989-.7982-1.312-1.4102-.32-.6145-.481-1.3515-.481-2.2109 0-.862.161-1.599.481-2.2109.323-.6146.76-1.0847 1.312-1.4102.555-.3255 1.183-.4883 1.883-.4883.701 0 1.327.1628 1.879.4883.555.3255.992.7956 1.313 1.4102.323.6119.484 1.3489.484 2.2109zm-1.457 0c0-.6068-.095-1.1185-.285-1.5352-.188-.4192-.448-.7356-.781-.9492-.334-.2161-.718-.3242-1.153-.3242s-.819.1081-1.152.3242c-.333.2136-.595.53-.785.9492-.188.4167-.282.9284-.282 1.5352s.094 1.1198.282 1.5391c.19.4166.452.733.785.9492.333.2135.717.3203 1.152.3203s.819-.1068 1.153-.3203c.333-.2162.593-.5326.781-.9492.19-.4193.285-.9323.285-1.5391zm2.827-4h1.774l2.375 5.7969h.093l2.375-5.7969h1.774v8h-1.391v-5.4961h-.074l-2.211 5.4727h-1.039l-2.211-5.4844h-.074v5.5078h-1.391z" />
    <path
      d="m245.137 30.1992c-.037-.3411-.19-.6068-.461-.7969-.268-.1901-.617-.2851-1.047-.2851-.302 0-.561.0456-.777.1367-.217.0912-.382.2148-.497.3711-.114.1562-.173.3346-.175.5352 0 .1666.037.3112.113.4335.078.1224.184.2266.316.3125.133.0834.28.1537.442.211.161.0573.324.1055.488.1445l.75.1875c.302.0703.593.1654.871.2852.281.1198.533.2708.754.4531.224.1823.401.4023.531.6602.131.2578.196.5599.196.9062 0 .4688-.12.8815-.36 1.2383-.239.3542-.586.6315-1.039.832-.45.1979-.996.2969-1.637.2969-.622 0-1.162-.0964-1.621-.2891-.455-.1927-.812-.4739-1.07-.8437-.255-.3698-.393-.8203-.414-1.3516h1.426c.021.2787.107.5104.258.6953s.347.3229.589.4141c.245.0911.519.1367.821.1367.315 0 .591-.0469.828-.1406.239-.0964.427-.2292.562-.3985.136-.1718.205-.3723.207-.6015-.002-.2083-.063-.3802-.183-.5156-.12-.1381-.288-.2526-.504-.3438-.214-.0937-.464-.1771-.75-.25l-.91-.2344c-.659-.1692-1.18-.4257-1.563-.7695-.38-.3463-.57-.806-.57-1.3789 0-.4714.128-.8841.383-1.2383.258-.3541.608-.6289 1.051-.8242.442-.1979.944-.2969 1.503-.2969.568 0 1.066.099 1.493.2969.429.1953.767.4674 1.011.8164.245.3464.371.7448.379 1.1953zm4.46 5.9219c-.381 0-.723-.0677-1.028-.2031-.302-.1381-.541-.3412-.718-.6094-.175-.2682-.262-.599-.262-.9922 0-.3385.062-.6185.187-.8398.125-.2214.296-.3985.512-.5313s.46-.2331.731-.3008c.273-.0703.556-.1211.847-.1523.352-.0365.637-.069.856-.0977.218-.0312.377-.0781.476-.1406.102-.0651.153-.1654.153-.3008v-.0234c0-.2943-.088-.5221-.262-.6836-.175-.1615-.426-.2422-.754-.2422-.346 0-.621.0755-.824.2266-.201.151-.336.3294-.407.5351l-1.32-.1875c.104-.3646.276-.6692.516-.914.239-.2474.532-.4323.879-.5547.346-.125.729-.1875 1.148-.1875.289 0 .577.0338.863.1015.287.0677.549.1797.786.336.237.1536.427.3633.57.6289.146.2656.219.5976.219.9961v4.0156h-1.36v-.8242h-.047c-.086.1666-.207.3229-.363.4687-.154.1433-.348.2591-.582.3477-.232.0859-.504.1289-.816.1289zm.367-1.0391c.284 0 .53-.056.738-.1679.208-.1146.369-.2657.481-.4532.114-.1875.171-.3919.171-.6132v-.7071c-.044.0365-.119.0703-.226.1016-.104.0312-.221.0586-.352.082-.13.0235-.259.0443-.386.0625-.128.0182-.239.0339-.332.0469-.211.0286-.4.0755-.567.1406-.166.0651-.298.1563-.394.2735-.097.1145-.145.263-.145.4453 0 .2604.095.457.285.5898s.433.1992.727.1992zm5.637-7.082v8h-1.414v-8zm4.11 8.1172c-.602 0-1.121-.125-1.559-.375-.435-.2526-.769-.6094-1.004-1.0703-.234-.4636-.351-1.0091-.351-1.6367 0-.6172.117-1.1589.351-1.625.237-.4688.568-.8334.993-1.0938.424-.263.923-.3945 1.496-.3945.37 0 .718.0599 1.047.1797.33.1171.622.2994.875.5468.255.2474.455.5625.601.9453.146.3803.219.8334.219 1.3594v.4336h-4.918v-.9531h3.562c-.002-.2708-.061-.5117-.175-.7227-.115-.2135-.275-.3815-.481-.5039-.203-.1224-.44-.1836-.711-.1836-.289 0-.543.0703-.761.211-.219.138-.39.3203-.512.5468-.12.224-.181.4701-.184.7383v.8321c0 .3489.064.6484.192.8984.127.2474.306.4375.535.5703.229.1302.497.1953.804.1953.206 0 .392-.0286.559-.0859.167-.0599.311-.1471.434-.2617.122-.1146.215-.2565.277-.4258l1.32.1484c-.083.349-.242.6537-.476.9141-.232.2578-.529.4583-.891.6015-.362.1407-.776.211-1.242.211zm8.606-4.5313-1.289.1407c-.036-.1302-.1-.2526-.191-.3672-.089-.1146-.208-.2071-.359-.2774-.152-.0703-.336-.1054-.555-.1054-.294 0-.542.0638-.742.1914-.198.1276-.296.2929-.293.4961-.003.1744.061.3164.191.4257.133.1094.352.1993.656.2696l1.024.2187c.567.1224.989.3164 1.265.5821.279.2656.42.6132.422 1.0429-.002.3776-.113.711-.332 1-.216.2865-.517.5104-.902.6719-.386.1615-.828.2422-1.328.2422-.735 0-1.326-.1537-1.774-.461-.448-.3098-.714-.7408-.8-1.2929l1.378-.1328c.063.2708.196.4752.399.6132.203.1381.467.2071.793.2071.336 0 .605-.069.808-.2071.206-.138.309-.3085.309-.5117 0-.1718-.066-.3138-.199-.4258-.13-.1119-.333-.1979-.61-.2578l-1.023-.2148c-.575-.1198-1.001-.3216-1.277-.6055-.276-.2864-.413-.6484-.41-1.0859-.003-.3698.097-.6901.3-.961.206-.2734.491-.4843.856-.6328.367-.151.79-.2265 1.269-.2265.703 0 1.257.1497 1.66.4492.407.2995.658.7044.754 1.2148z" />
    <path
      d="m294.238 28v8h-1.449v-8zm2.921 4.4844v3.5156h-1.414v-6h1.352v1.0195h.07c.138-.3359.358-.6028.66-.8008.305-.1979.681-.2968 1.129-.2968.414 0 .775.0885 1.082.2656.31.1771.55.4336.719.7695.172.336.256.7435.254 1.2227v3.8203h-1.414v-3.6016c0-.401-.104-.7148-.313-.9414-.206-.2265-.491-.3398-.855-.3398-.248 0-.468.0547-.66.164-.191.1068-.34.2618-.45.4649-.106.2031-.16.4492-.16.7383zm10.434-2.4844-2.137 6h-1.562l-2.137-6h1.508l1.379 4.457h.062l1.383-4.457zm3.43 6.1172c-.601 0-1.121-.125-1.558-.375-.435-.2526-.77-.6094-1.004-1.0703-.234-.4636-.352-1.0091-.352-1.6367 0-.6172.118-1.1589.352-1.625.237-.4688.568-.8334.992-1.0938.425-.263.923-.3945 1.496-.3945.37 0 .719.0599 1.047.1797.331.1171.622.2994.875.5468.255.2474.456.5625.602.9453.145.3803.218.8334.218 1.3594v.4336h-4.918v-.9531h3.563c-.003-.2708-.061-.5117-.176-.7227-.114-.2135-.275-.3815-.48-.5039-.203-.1224-.44-.1836-.711-.1836-.289 0-.543.0703-.762.211-.219.138-.389.3203-.512.5468-.119.224-.181.4701-.183.7383v.8321c0 .3489.064.6484.191.8984.128.2474.306.4375.535.5703.229.1302.498.1953.805.1953.206 0 .392-.0286.559-.0859.166-.0599.311-.1471.433-.2617.123-.1146.215-.2565.278-.4258l1.32.1484c-.084.349-.242.6537-.477.9141-.232.2578-.528.4583-.89.6015-.362.1407-.776.211-1.243.211zm5.279-3.6328v3.5156h-1.414v-6h1.351v1.0195h.071c.138-.3359.358-.6028.66-.8008.304-.1979.681-.2968 1.129-.2968.414 0 .774.0885 1.082.2656.31.1771.549.4336.718.7695.172.336.257.7435.254 1.2227v3.8203h-1.414v-3.6016c0-.401-.104-.7148-.312-.9414-.206-.2265-.491-.3398-.856-.3398-.247 0-.467.0547-.66.164-.19.1068-.34.2618-.449.4649-.107.2031-.16.4492-.16.7383zm8.285-2.4844v1.0937h-3.449v-1.0937zm-2.598-1.4375h1.414v5.6328c0 .1901.029.336.086.4375.06.099.138.1667.235.2031.096.0365.203.0547.32.0547.088 0 .169-.0065.242-.0195.076-.013.133-.0247.172-.0352l.238 1.1055c-.075.026-.183.0547-.324.0859-.138.0313-.307.0495-.508.0547-.354.0104-.673-.0429-.957-.1601-.284-.1198-.509-.3047-.676-.5547-.164-.25-.244-.5625-.242-.9375zm6.333 7.5547c-.586 0-1.093-.1289-1.523-.3867s-.763-.6185-1-1.0821c-.235-.4635-.352-1.0052-.352-1.625s.117-1.1627.352-1.6289c.237-.4661.57-.8281 1-1.0859s.937-.3867 1.523-.3867 1.094.1289 1.524.3867c.429.2578.761.6198.996 1.0859.237.4662.355 1.0091.355 1.6289s-.118 1.1615-.355 1.625c-.235.4636-.567.8243-.996 1.0821-.43.2578-.938.3867-1.524.3867zm.008-1.1328c.318 0 .583-.0873.797-.2617.213-.1771.372-.4141.477-.711.106-.2969.16-.6276.16-.9922 0-.3672-.054-.6992-.16-.9961-.105-.2994-.264-.5377-.477-.7148-.214-.1771-.479-.2656-.797-.2656-.325 0-.596.0885-.812.2656-.214.1771-.374.4154-.481.7148-.104.2969-.156.6289-.156.9961 0 .3646.052.6953.156.9922.107.2969.267.5339.481.711.216.1744.487.2617.812.2617zm4.067 1.0156v-6h1.372v1h.062c.109-.3464.297-.6133.563-.8008.268-.1901.574-.2851.918-.2851.078 0 .165.0039.261.0117.099.0052.181.0143.246.0273v1.3008c-.06-.0208-.155-.0391-.285-.0547-.127-.0182-.251-.0273-.371-.0273-.258 0-.489.056-.695.1679-.203.1094-.364.2618-.481.4571s-.175.4205-.175.6758v3.5273zm5.423 2.25c-.192 0-.371-.0156-.535-.0469-.161-.0286-.29-.0625-.387-.1015l.329-1.1016c.205.0599.389.0885.55.0859.162-.0026.304-.0533.426-.1523.125-.0964.231-.2578.317-.4844l.121-.3242-2.176-6.125h1.5l1.383 4.5312h.062l1.387-4.5312h1.504l-2.403 6.7266c-.112.3177-.26.5898-.445.8164-.185.2291-.411.4036-.68.5234-.265.1224-.583.1836-.953.1836zm11.227-8.25v1.0937h-3.547v-1.0937zm-2.66 6v-6.5664c0-.4037.083-.7396.25-1.0078.169-.2682.396-.4688.679-.6016.284-.1328.599-.1992.946-.1992.245 0 .462.0195.652.0586s.331.0742.422.1055l-.281 1.0937c-.06-.0182-.136-.0364-.227-.0547-.091-.0208-.193-.0312-.305-.0312-.263 0-.449.0638-.558.1914-.107.125-.16.3047-.16.539v6.4727zm6.159.1172c-.586 0-1.094-.1289-1.524-.3867-.429-.2578-.763-.6185-1-1.0821-.234-.4635-.351-1.0052-.351-1.625s.117-1.1627.351-1.6289c.237-.4661.571-.8281 1-1.0859.43-.2578.938-.3867 1.524-.3867s1.094.1289 1.523.3867c.43.2578.762.6198.996 1.0859.237.4662.356 1.0091.356 1.6289s-.119 1.1615-.356 1.625c-.234.4636-.566.8243-.996 1.0821-.429.2578-.937.3867-1.523.3867zm.008-1.1328c.317 0 .583-.0873.797-.2617.213-.1771.372-.4141.476-.711.107-.2969.16-.6276.16-.9922 0-.3672-.053-.6992-.16-.9961-.104-.2994-.263-.5377-.476-.7148-.214-.1771-.48-.2656-.797-.2656-.326 0-.597.0885-.813.2656-.213.1771-.373.4154-.48.7148-.104.2969-.157.6289-.157.9961 0 .3646.053.6953.157.9922.107.2969.267.5339.48.711.216.1744.487.2617.813.2617zm4.067 1.0156v-6h1.371v1h.063c.109-.3464.297-.6133.562-.8008.268-.1901.574-.2851.918-.2851.078 0 .166.0039.262.0117.099.0052.181.0143.246.0273v1.3008c-.06-.0208-.155-.0391-.285-.0547-.128-.0182-.251-.0273-.371-.0273-.258 0-.49.056-.696.1679-.203.1094-.363.2618-.48.4571s-.176.4205-.176.6758v3.5273zm6.771.1172c-.602 0-1.121-.125-1.559-.375-.435-.2526-.77-.6094-1.004-1.0703-.234-.4636-.351-1.0091-.351-1.6367 0-.6172.117-1.1589.351-1.625.237-.4688.568-.8334.992-1.0938.425-.263.923-.3945 1.496-.3945.37 0 .719.0599 1.047.1797.331.1171.623.2994.875.5468.255.2474.456.5625.602.9453.146.3803.219.8334.219 1.3594v.4336h-4.918v-.9531h3.562c-.003-.2708-.061-.5117-.176-.7227-.114-.2135-.274-.3815-.48-.5039-.203-.1224-.44-.1836-.711-.1836-.289 0-.543.0703-.762.211-.219.138-.389.3203-.512.5468-.119.224-.181.4701-.183.7383v.8321c0 .3489.064.6484.191.8984.128.2474.306.4375.535.5703.23.1302.498.1953.805.1953.206 0 .392-.0286.559-.0859.166-.0599.311-.1471.433-.2617.123-.1146.215-.2565.278-.4258l1.32.1484c-.083.349-.242.6537-.477.9141-.231.2578-.528.4583-.89.6015-.362.1407-.776.211-1.242.211zm6.481 0c-.599 0-1.113-.1315-1.543-.3945-.427-.2631-.756-.6263-.988-1.0899-.229-.4661-.344-1.0026-.344-1.6094 0-.6093.117-1.1471.352-1.6132.234-.4688.565-.8334.992-1.0938.429-.263.937-.3945 1.523-.3945.487 0 .918.0898 1.293.2695.378.1771.679.4284.903.7539.224.3229.351.7005.382 1.1328h-1.351c-.055-.289-.185-.5299-.391-.7226-.203-.1953-.475-.293-.816-.293-.289 0-.543.0781-.762.2344-.219.1536-.389.375-.512.664-.119.2891-.179.6355-.179 1.0391 0 .4089.06.7604.179 1.0547.12.2917.288.5169.504.6758.219.1562.475.2343.77.2343.208 0 .394-.039.558-.1171.167-.0808.306-.1967.418-.3477s.189-.3346.231-.5508h1.351c-.033.4245-.158.8008-.375 1.1289-.216.3255-.51.5808-.882.7656-.373.1823-.81.2735-1.313.2735zm5.458.0039c-.38 0-.723-.0677-1.027-.2031-.302-.1381-.542-.3412-.719-.6094-.175-.2682-.262-.599-.262-.9922 0-.3385.063-.6185.188-.8398.125-.2214.295-.3985.511-.5313.217-.1328.46-.2331.731-.3008.273-.0703.556-.1211.848-.1523.351-.0365.636-.069.855-.0977.219-.0312.378-.0781.477-.1406.101-.0651.152-.1654.152-.3008v-.0234c0-.2943-.087-.5221-.262-.6836-.174-.1615-.426-.2422-.754-.2422-.346 0-.621.0755-.824.2266-.2.151-.336.3294-.406.5351l-1.32-.1875c.104-.3646.276-.6692.515-.914.24-.2474.533-.4323.879-.5547.346-.125.729-.1875 1.149-.1875.289 0 .576.0338.863.1015.286.0677.548.1797.785.336.237.1536.427.3633.57.6289.146.2656.219.5976.219.9961v4.0156h-1.359v-.8242h-.047c-.086.1666-.207.3229-.364.4687-.153.1433-.347.2591-.582.3477-.231.0859-.503.1289-.816.1289zm.367-1.0391c.284 0 .53-.056.739-.1679.208-.1146.368-.2657.48-.4532.115-.1875.172-.3919.172-.6132v-.7071c-.044.0365-.12.0703-.227.1016-.104.0312-.221.0586-.351.082-.13.0235-.259.0443-.387.0625s-.238.0339-.332.0469c-.211.0286-.4.0755-.566.1406-.167.0651-.299.1563-.395.2735-.096.1145-.144.263-.144.4453 0 .2604.095.457.285.5898s.432.1992.726.1992zm8.965-3.4961-1.289.1407c-.036-.1302-.1-.2526-.191-.3672-.089-.1146-.209-.2071-.36-.2774s-.336-.1054-.554-.1054c-.295 0-.542.0638-.743.1914-.198.1276-.295.2929-.293.4961-.002.1744.062.3164.192.4257.133.1094.351.1993.656.2696l1.023.2187c.568.1224.99.3164 1.266.5821.279.2656.419.6132.422 1.0429-.003.3776-.113.711-.332 1-.216.2865-.517.5104-.902.6719-.386.1615-.829.2422-1.329.2422-.734 0-1.325-.1537-1.773-.461-.448-.3098-.715-.7408-.801-1.2929l1.379-.1328c.063.2708.195.4752.399.6132.203.1381.467.2071.793.2071.336 0 .605-.069.808-.2071.206-.138.309-.3085.309-.5117 0-.1718-.067-.3138-.199-.4258-.131-.1119-.334-.1979-.61-.2578l-1.023-.2148c-.576-.1198-1.002-.3216-1.278-.6055-.276-.2864-.412-.6484-.41-1.0859-.002-.3698.098-.6901.301-.961.206-.2734.491-.4843.855-.6328.368-.151.791-.2265 1.27-.2265.703 0 1.257.1497 1.66.4492.406.2995.658.7044.754 1.2148zm4.291-1.5859v1.0937h-3.449v-1.0937zm-2.598-1.4375h1.415v5.6328c0 .1901.028.336.085.4375.06.099.138.1667.235.2031.096.0365.203.0547.32.0547.089 0 .169-.0065.242-.0195.076-.013.133-.0247.172-.0352l.238 1.1055c-.075.026-.183.0547-.324.0859-.138.0313-.307.0495-.508.0547-.354.0104-.673-.0429-.957-.1601-.283-.1198-.509-.3047-.675-.5547-.164-.25-.245-.5625-.243-.9375z" />
    <path
      d="m416.5 36h-2.711v-8h2.766c.794 0 1.476.1602 2.047.4805.572.3177 1.013.7747 1.32 1.3711.307.5963.461 1.3099.461 2.1406 0 .8333-.155 1.5495-.465 2.1484-.307.599-.751 1.0586-1.332 1.3789-.578.3203-1.273.4805-2.086.4805zm-1.262-1.2539h1.192c.557 0 1.022-.1016 1.394-.3047.373-.2057.653-.5117.84-.918.188-.4088.281-.9192.281-1.5312s-.093-1.1198-.281-1.5235c-.187-.4062-.465-.7096-.832-.9101-.365-.2031-.818-.3047-1.359-.3047h-1.235zm9.116 1.3711c-.602 0-1.122-.125-1.559-.375-.435-.2526-.77-.6094-1.004-1.0703-.234-.4636-.352-1.0091-.352-1.6367 0-.6172.118-1.1589.352-1.625.237-.4688.568-.8334.992-1.0938.425-.263.923-.3945 1.496-.3945.37 0 .719.0599 1.047.1797.331.1171.623.2994.875.5468.255.2474.456.5625.602.9453.146.3803.218.8334.218 1.3594v.4336h-4.917v-.9531h3.562c-.003-.2708-.061-.5117-.176-.7227-.114-.2135-.275-.3815-.48-.5039-.203-.1224-.44-.1836-.711-.1836-.289 0-.543.0703-.762.211-.219.138-.389.3203-.512.5468-.119.224-.181.4701-.183.7383v.8321c0 .3489.064.6484.191.8984.128.2474.306.4375.535.5703.23.1302.498.1953.805.1953.206 0 .392-.0286.559-.0859.166-.0599.311-.1471.433-.2617.123-.1146.215-.2565.278-.4258l1.32.1484c-.083.349-.242.6537-.477.9141-.231.2578-.528.4583-.89.6015-.362.1407-.776.211-1.242.211zm3.864-.1172v-6h1.351v1.0195h.071c.125-.3437.332-.6119.621-.8047.289-.1953.634-.2929 1.035-.2929.406 0 .749.0989 1.027.2968.281.1954.479.4623.594.8008h.062c.133-.3333.357-.5989.672-.7968.318-.2006.694-.3008 1.129-.3008.552 0 1.003.1745 1.352.5234.349.349.523.8581.523 1.5274v4.0273h-1.418v-3.8086c0-.3724-.099-.6445-.297-.8164-.197-.1745-.44-.2617-.726-.2617-.341 0-.608.1068-.801.3203-.19.2109-.285.4857-.285.8242v3.7422h-1.387v-3.8672c0-.3099-.094-.5573-.281-.7422-.185-.1849-.427-.2773-.727-.2773-.203 0-.388.0521-.554.1562-.167.1016-.3.2461-.399.4336-.099.1849-.148.4011-.148.6485v3.6484zm11.598.1211c-.38 0-.722-.0677-1.027-.2031-.302-.1381-.542-.3412-.719-.6094-.174-.2682-.261-.599-.261-.9922 0-.3385.062-.6185.187-.8398.125-.2214.296-.3985.512-.5313s.459-.2331.73-.3008c.274-.0703.556-.1211.848-.1523.352-.0365.637-.069.855-.0977.219-.0312.378-.0781.477-.1406.102-.0651.152-.1654.152-.3008v-.0234c0-.2943-.087-.5221-.261-.6836-.175-.1615-.426-.2422-.754-.2422-.347 0-.621.0755-.825.2266-.2.151-.335.3294-.406.5351l-1.32-.1875c.104-.3646.276-.6692.516-.914.239-.2474.532-.4323.878-.5547.347-.125.73-.1875 1.149-.1875.289 0 .577.0338.863.1015.287.0677.548.1797.785.336.237.1536.427.3633.571.6289.145.2656.218.5976.218.9961v4.0156h-1.359v-.8242h-.047c-.086.1666-.207.3229-.363.4687-.154.1433-.348.2591-.582.3477-.232.0859-.504.1289-.817.1289zm.368-1.0391c.283 0 .53-.056.738-.1679.208-.1146.368-.2657.48-.4532.115-.1875.172-.3919.172-.6132v-.7071c-.044.0365-.12.0703-.226.1016-.105.0312-.222.0586-.352.082-.13.0235-.259.0443-.387.0625-.127.0182-.238.0339-.332.0469-.211.0286-.399.0755-.566.1406s-.298.1563-.395.2735c-.096.1145-.144.263-.144.4453 0 .2604.095.457.285.5898s.432.1992.727.1992zm5.636-2.5976v3.5156h-1.414v-6h1.352v1.0195h.07c.138-.3359.358-.6028.66-.8008.305-.1979.681-.2968 1.129-.2968.414 0 .775.0885 1.082.2656.31.1771.55.4336.719.7695.172.336.256.7435.254 1.2227v3.8203h-1.414v-3.6016c0-.401-.104-.7148-.313-.9414-.205-.2265-.491-.3398-.855-.3398-.248 0-.468.0547-.66.164-.19.1068-.34.2618-.45.4649-.106.2031-.16.4492-.16.7383zm7.516 3.6211c-.471 0-.893-.1211-1.266-.3633-.372-.2422-.666-.5938-.882-1.0547-.217-.4609-.325-1.0208-.325-1.6797 0-.6667.11-1.2292.328-1.6875.222-.4609.52-.8086.895-1.043.375-.2369.793-.3554 1.254-.3554.351 0 .64.0599.867.1797.227.1171.406.2591.539.4257.133.1641.236.3191.309.4649h.058v-2.9922h1.418v8h-1.39v-.9453h-.086c-.073.1458-.179.3008-.317.4648-.138.1615-.32.2995-.547.4141-.226.1146-.511.1719-.855.1719zm.394-1.1602c.3 0 .555-.0807.766-.2422.211-.164.371-.3919.481-.6836.109-.2916.164-.6315.164-1.0195s-.055-.7253-.164-1.0117c-.107-.2865-.266-.5091-.477-.668-.208-.1588-.465-.2383-.77-.2383-.315 0-.578.0821-.789.2461-.211.1641-.369.3906-.476.6797s-.16.6198-.16.9922c0 .375.053.7096.16 1.0039.109.2917.269.5221.48.6914.214.1667.476.25.785.25zm10.076-4.9453v1.0937h-3.547v-1.0937zm-2.66 6v-6.5664c0-.4037.083-.7396.25-1.0078.169-.2682.395-.4688.679-.6016s.599-.1992.946-.1992c.244 0 .462.0195.652.0586s.331.0742.422.1055l-.282 1.0937c-.059-.0182-.135-.0364-.226-.0547-.091-.0208-.193-.0312-.305-.0312-.263 0-.449.0638-.558.1914-.107.125-.161.3047-.161.539v6.4727zm6.159.1172c-.586 0-1.094-.1289-1.524-.3867-.429-.2578-.763-.6185-1-1.0821-.234-.4635-.351-1.0052-.351-1.625s.117-1.1627.351-1.6289c.237-.4661.571-.8281 1-1.0859.43-.2578.938-.3867 1.524-.3867s1.093.1289 1.523.3867.762.6198.996 1.0859c.237.4662.356 1.0091.356 1.6289s-.119 1.1615-.356 1.625c-.234.4636-.566.8243-.996 1.0821s-.937.3867-1.523.3867zm.007-1.1328c.318 0 .584-.0873.797-.2617.214-.1771.373-.4141.477-.711.107-.2969.16-.6276.16-.9922 0-.3672-.053-.6992-.16-.9961-.104-.2994-.263-.5377-.477-.7148-.213-.1771-.479-.2656-.797-.2656-.325 0-.596.0885-.812.2656-.214.1771-.374.4154-.48.7148-.105.2969-.157.6289-.157.9961 0 .3646.052.6953.157.9922.106.2969.266.5339.48.711.216.1744.487.2617.812.2617zm4.068 1.0156v-6h1.371v1h.062c.11-.3464.297-.6133.563-.8008.268-.1901.574-.2851.918-.2851.078 0 .165.0039.262.0117.099.0052.181.0143.246.0273v1.3008c-.06-.0208-.155-.0391-.285-.0547-.128-.0182-.252-.0273-.371-.0273-.258 0-.49.056-.696.1679-.203.1094-.363.2618-.48.4571s-.176.4205-.176.6758v3.5273zm6.77.1172c-.601 0-1.121-.125-1.558-.375-.435-.2526-.77-.6094-1.004-1.0703-.234-.4636-.352-1.0091-.352-1.6367 0-.6172.118-1.1589.352-1.625.237-.4688.568-.8334.992-1.0938.425-.263.923-.3945 1.496-.3945.37 0 .719.0599 1.047.1797.331.1171.622.2994.875.5468.255.2474.456.5625.602.9453.145.3803.218.8334.218 1.3594v.4336h-4.918v-.9531h3.563c-.003-.2708-.061-.5117-.176-.7227-.114-.2135-.275-.3815-.48-.5039-.203-.1224-.44-.1836-.711-.1836-.289 0-.543.0703-.762.211-.219.138-.389.3203-.512.5468-.12.224-.181.4701-.183.7383v.8321c0 .3489.063.6484.191.8984.128.2474.306.4375.535.5703.229.1302.498.1953.805.1953.206 0 .392-.0286.559-.0859.166-.0599.311-.1471.433-.2617.123-.1146.215-.2565.277-.4258l1.321.1484c-.084.349-.242.6537-.477.9141-.232.2578-.528.4583-.89.6015-.362.1407-.776.211-1.243.211zm6.482 0c-.599 0-1.113-.1315-1.543-.3945-.427-.2631-.757-.6263-.988-1.0899-.23-.4661-.344-1.0026-.344-1.6094 0-.6093.117-1.1471.351-1.6132.235-.4688.566-.8334.993-1.0938.429-.263.937-.3945 1.523-.3945.487 0 .918.0898 1.293.2695.378.1771.678.4284.902.7539.224.3229.352.7005.383 1.1328h-1.351c-.055-.289-.185-.5299-.391-.7226-.203-.1953-.475-.293-.816-.293-.29 0-.543.0781-.762.2344-.219.1536-.389.375-.512.664-.12.2891-.18.6355-.18 1.0391 0 .4089.06.7604.18 1.0547.12.2917.288.5169.504.6758.219.1562.475.2343.77.2343.208 0 .394-.039.558-.1171.167-.0808.306-.1967.418-.3477s.189-.3346.231-.5508h1.351c-.034.4245-.159.8008-.375 1.1289-.216.3255-.51.5808-.883.7656-.372.1823-.81.2735-1.312.2735zm5.458.0039c-.38 0-.723-.0677-1.027-.2031-.303-.1381-.542-.3412-.719-.6094-.175-.2682-.262-.599-.262-.9922 0-.3385.063-.6185.188-.8398.125-.2214.295-.3985.511-.5313s.46-.2331.731-.3008c.273-.0703.556-.1211.847-.1523.352-.0365.637-.069.856-.0977.219-.0312.377-.0781.476-.1406.102-.0651.153-.1654.153-.3008v-.0234c0-.2943-.087-.5221-.262-.6836-.174-.1615-.426-.2422-.754-.2422-.346 0-.621.0755-.824.2266-.201.151-.336.3294-.406.5351l-1.321-.1875c.105-.3646.276-.6692.516-.914.24-.2474.533-.4323.879-.5547.346-.125.729-.1875 1.148-.1875.289 0 .577.0338.864.1015.286.0677.548.1797.785.336.237.1536.427.3633.57.6289.146.2656.219.5976.219.9961v4.0156h-1.36v-.8242h-.046c-.086.1666-.207.3229-.364.4687-.153.1433-.347.2591-.582.3477-.232.0859-.504.1289-.816.1289zm.367-1.0391c.284 0 .53-.056.738-.1679.209-.1146.369-.2657.481-.4532.114-.1875.172-.3919.172-.6132v-.7071c-.045.0365-.12.0703-.227.1016-.104.0312-.221.0586-.351.082-.131.0235-.26.0443-.387.0625-.128.0182-.238.0339-.332.0469-.211.0286-.4.0755-.567.1406-.166.0651-.298.1563-.394.2735-.097.1145-.145.263-.145.4453 0 .2604.095.457.285.5898.191.1328.433.1992.727.1992zm8.965-3.4961-1.289.1407c-.037-.1302-.1-.2526-.192-.3672-.088-.1146-.208-.2071-.359-.2774s-.336-.1054-.555-.1054c-.294 0-.541.0638-.742.1914-.198.1276-.295.2929-.293.4961-.002.1744.061.3164.192.4257.132.1094.351.1993.656.2696l1.023.2187c.568.1224.99.3164 1.266.5821.279.2656.419.6132.422 1.0429-.003.3776-.113.711-.332 1-.216.2865-.517.5104-.903.6719-.385.1615-.828.2422-1.328.2422-.734 0-1.325-.1537-1.773-.461-.448-.3098-.715-.7408-.801-1.2929l1.379-.1328c.062.2708.195.4752.398.6132.204.1381.468.2071.793.2071.336 0 .606-.069.809-.2071.206-.138.309-.3085.309-.5117 0-.1718-.067-.3138-.2-.4258-.13-.1119-.333-.1979-.609-.2578l-1.023-.2148c-.576-.1198-1.002-.3216-1.278-.6055-.276-.2864-.413-.6484-.41-1.0859-.003-.3698.098-.6901.301-.961.206-.2734.491-.4843.855-.6328.367-.151.791-.2265 1.27-.2265.703 0 1.256.1497 1.66.4492.406.2995.658.7044.754 1.2148zm4.291-1.5859v1.0937h-3.449v-1.0937zm-2.598-1.4375h1.414v5.6328c0 .1901.029.336.086.4375.06.099.138.1667.235.2031.096.0365.203.0547.32.0547.088 0 .169-.0065.242-.0195.076-.013.133-.0247.172-.0352l.238 1.1055c-.075.026-.183.0547-.324.0859-.138.0313-.307.0495-.508.0547-.354.0104-.673-.0429-.957-.1601-.284-.1198-.509-.3047-.676-.5547-.164-.25-.244-.5625-.242-.9375z" />
    <path clip-rule="evenodd"
      d="m44.0427 57.415-7.0022-4.2779c-.6403-.3912-1.4457-.3911-2.0858.0002l-2.1341 1.3045 8.4216 5.0723 3.1052-1.8705c-.0931-.0849-.195-.1616-.3047-.2286zm-4.0427 4.5985v3.1245l2-1.2048v-3.1244l2.9965-1.8051c.0023.0391.0035.0785.0035.118v8.2565c0 .6967-.3626 1.3432-.9571 1.7066l-7 4.2777c-.0944.0577-.1924.1069-.2929.1476v-9.5389zm-.6958-1.332-8.4074-5.0637-2.9399 1.7971c-.1097.0671-.2114.1437-.3045.2286l8.3476 5.0284zm-12.3042-1.5601c0-.0394.0012-.0787.0035-.1177l8.2465 4.9675v9.5389c-.1005-.0407-.1985-.0899-.2929-.1476l-7-4.2777c-.5945-.3634-.9571-1.0099-.9571-1.7066z"
      fill-rule="evenodd" />
  </g>
  <path d="m58 59h108v8h-108z" fill="#347c68">
    <animate id="anim1" attributeName="fill" dur="800ms" fill="freeze" begin="2s; anim2.end + 5s"
      to="#B5D9D0"
    />
  </path>
  <path d="m190 59h28v8h-28z" fill="#347c68">
    <animate id="anim1" attributeName="fill" dur="800ms" fill="freeze" begin="2s; anim2.end + 5s"
      to="#B5D9D0"
    />
  </path>
  <path
    d="m254.255 58.1417c-.011-.08-.081-.1243-.139-.1291-.058-.0049-1.28-.0955-1.28-.0955s-.85-.8436-.943-.937c-.093-.0933-.275-.0649-.346-.0441-.01.0031-.185.0572-.475.1469-.284-.8168-.784-1.5674-1.665-1.5674-.024 0-.049.001-.074.0024-.251-.3314-.561-.4754-.829-.4754-2.051 0-3.031 2.5663-3.339 3.8704-.797.2472-1.363.4229-1.435.4456-.445.1397-.459.1537-.518.5733-.044.3176-1.208 9.3274-1.208 9.3274l9.072 1.701 4.915-1.0641s-1.725-11.6744-1.736-11.7544zm-3.684-.9037-.768.2378c0-.0541.001-.1074.001-.1656 0-.5077-.071-.9164-.184-1.2404.454.057.756.5737.951 1.1682zm-1.514-1.0675c.126.3163.208.7703.208 1.3829v.089c-.499.1547-1.042.3227-1.585.4913.305-1.179.877-1.7484 1.377-1.9632zm-.609-.5774c.088 0 .178.0301.263.0889-.658.3096-1.362 1.0893-1.66 2.6464l-1.253.3884c.349-1.1877 1.176-3.1237 2.65-3.1237z"
    fill="#347c68" />
  <path
    d="m254.114 58.0126c-.058-.0048-1.28-.0955-1.28-.0955s-.85-.8436-.943-.937c-.035-.0347-.082-.0525-.131-.0602l-.686 14.0402 4.915-1.064s-1.725-11.6744-1.736-11.7544-.081-.1242-.139-.1291z"
    fill="#004d3b" />
  <path
    d="m249.406 60.7309-.606 1.8041s-.531-.2836-1.182-.2836c-.954 0-1.002.5993-1.002.7503 0 .824 2.146 1.1397 2.146 3.0698 0 1.5185-.962 2.4963-2.26 2.4963-1.557 0-2.354-.9698-2.354-.9698l.417-1.3786s.819.7032 1.51.7032c.451 0 .635-.3556.635-.6154 0-1.0749-1.761-1.1228-1.761-2.889 0-1.4865 1.066-2.925 3.218-2.925.83 0 1.239.2377 1.239.2377z"
    fill="#4c9784">
    <animate id="anim1" attributeName="fill" dur="800ms" fill="freeze" begin="2s; anim2.end + 5s"
      to="#fff"
    />
  </path>


  <rect fill="#347c68" height="8" rx="4" width="108" x="280.02" y="59">
    <animate id="anim1" attributeName="fill" dur="800ms" fill="freeze" begin="2s; anim2.end + 5s"
      to="#B5D9D0"
    />
  </rect>

  <rect fill="#004d3b" height="8" width="18" x="284.02" y="59">
    <animate id="anim1" attributeName="width" dur="800ms" fill="freeze" begin="2s; anim2.end + 5s"
      to="64"
    />
  </rect>
  <path d="m280.02 63c0-2.2091 1.79-4 4-4h18v8h-18c-2.21 0-4-1.7909-4-4z" fill="#004d3b" />


  <path
    d="m413.52 72.5 39.665-7.8352c.552-.1091 1.119-.1241 1.676-.0445l15.205 2.1721c.949.1355 1.917-.0044 2.788-.4032l28.166-12.8892"
    stroke="#347c68" stroke-linecap="round" stroke-width="2">
    <animate id="anim1" attributeName="stroke" dur="800ms" fill="freeze"
      begin="2s; anim2.end + 5s"
      to="#529A86"
    />
  </path>
  <path d="M412.945 68.0054L500.945 59.0054" stroke="black" stroke-opacity="0"
    stroke-dasharray="4 4">
    <animate id="anim1" attributeName="stroke-opacity" dur="800ms" fill="freeze"
      begin="2s; anim2.end + 5s"
      to="0.1"
    />
  </path>
  <path d="m413.02 74h88" stroke="#347c68" stroke-opacity=".5">
    <animate id="anim1" attributeName="stroke" dur="800ms" fill="freeze"
      begin="2s; anim2.end + 5s"
      to="#B5D9D0"
    />
  </path>


  <path clip-rule="evenodd"
    d="m44.0427 89.415-7.0022-4.2779c-.6403-.3912-1.4457-.3911-2.0858.0002l-2.1341 1.3045 8.4216 5.0723 3.1052-1.8705c-.0931-.0849-.195-.1616-.3047-.2286zm-4.0427 4.5985v3.1245l2-1.2048v-3.1244l2.9965-1.8051c.0023.0391.0035.0785.0035.118v8.2565c0 .6968-.3626 1.3428-.9571 1.7068l-7 4.278c-.0944.057-.1924.106-.2929.147v-9.5388zm-.6958-1.332-8.4074-5.0637-2.9399 1.7971c-.1097.0671-.2114.1437-.3045.2286l8.3476 5.0284zm-12.3042-1.5601c0-.0394.0012-.0787.0035-.1177l8.2465 4.9675v9.5388c-.1005-.041-.1985-.09-.2929-.147l-7-4.278c-.5945-.364-.9571-1.01-.9571-1.7068z"
    fill="#004d3b" fill-rule="evenodd" />
  <path d="m58 91h108v8h-108z" fill="#347c68">
    <animate id="anim1" attributeName="fill" dur="800ms" fill="freeze" begin="2s; anim2.end + 5s"
      to="#B5D9D0"
    />
  </path>
  <path d="m190 91h28v8h-28z" fill="#347c68">
    <animate id="anim1" attributeName="fill" dur="800ms" fill="freeze" begin="2s; anim2.end + 5s"
      to="#B5D9D0"
    />
  </path>
  <path
    d="m254.255 90.1417c-.011-.08-.081-.1243-.139-.1291-.058-.0049-1.28-.0955-1.28-.0955s-.85-.8436-.943-.937c-.093-.0933-.275-.0649-.346-.0441-.01.0031-.185.0572-.475.1469-.284-.8168-.784-1.5674-1.665-1.5674-.024 0-.049.001-.074.0024-.251-.3314-.561-.4754-.829-.4754-2.051 0-3.031 2.5663-3.339 3.8704-.797.2472-1.363.4229-1.435.4456-.445.1397-.459.1537-.518.5733-.044.3176-1.208 9.3272-1.208 9.3272l9.072 1.701 4.915-1.064s-1.725-11.6743-1.736-11.7543zm-3.684-.9037-.768.2378c0-.0541.001-.1074.001-.1656 0-.5077-.071-.9164-.184-1.2404.454.057.756.5737.951 1.1682zm-1.514-1.0675c.126.3163.208.7703.208 1.3829v.089c-.499.1547-1.042.3227-1.585.4913.305-1.179.877-1.7484 1.377-1.9632zm-.609-.5774c.088 0 .178.0301.263.0889-.658.3096-1.362 1.0893-1.66 2.6464l-1.253.3884c.349-1.1877 1.176-3.1237 2.65-3.1237z"
    fill="#347c68" />
  <path
    d="m254.114 90.0126c-.058-.0048-1.28-.0955-1.28-.0955s-.85-.8436-.943-.937c-.035-.0347-.082-.0525-.131-.0602l-.686 14.0401 4.915-1.064s-1.725-11.6743-1.736-11.7543-.081-.1242-.139-.1291z"
    fill="#004d3b" />
  <path
    d="m249.406 92.7309-.606 1.8041s-.531-.2836-1.182-.2836c-.954 0-1.002.5993-1.002.7503 0 .824 2.146 1.1397 2.146 3.0698 0 1.5185-.962 2.4965-2.26 2.4965-1.557 0-2.354-.97-2.354-.97l.417-1.3786s.819.7032 1.51.7032c.451 0 .635-.3556.635-.6154 0-1.0749-1.761-1.1228-1.761-2.889 0-1.4865 1.066-2.925 3.218-2.925.83 0 1.239.2377 1.239.2377z"
    fill="#4c9784">
    <animate id="anim1" attributeName="fill" dur="800ms" fill="freeze" begin="2s; anim2.end + 5s"
      to="#fff"
    />
  </path>


  <rect fill="#347c68" height="8" rx="4" width="108" x="280.02" y="91">
    <animate id="anim1" attributeName="fill" dur="800ms" fill="freeze" begin="2s; anim2.end + 5s"
      to="#B5D9D0"
    />
  </rect>
  <rect fill="#004d3b" height="8" width="18" x="284.02" y="91">
    <animate id="anim1" attributeName="width" dur="800ms" fill="freeze" begin="2s; anim2.end + 5s"
      to="80"
    />
  </rect>
  <path d="m280.02 95c0-2.2091 1.79-4 4-4h18v8h-18c-2.21 0-4-1.7909-4-4z" fill="#004d3b" />


  <path
    d="m413.52 104.5 23.512-9.8751c.967-.4063 2.038-.4979 3.06-.262l15.227 3.514c1.68.3876 3.441-.1174 4.66-1.3365l9.576-9.5759c.938-.9377 2.21-1.4645 3.536-1.4645h27.929"
    stroke="#347c68" stroke-linecap="round" stroke-width="2">
    <animate id="anim1" attributeName="stroke" dur="800ms" fill="freeze"
      begin="2s; anim2.end + 5s"
      to="#529A86"
    />
  </path>
  <path d="M412.77 97.6934L501.12 93.3165" stroke="black"
    stroke-opacity="0" stroke-dasharray="4 4">
    <animate id="anim1" attributeName="stroke-opacity" dur="800ms" fill="freeze"
      begin="2s; anim2.end + 5s"
      to="0.1"
    />
  </path>
  <path d="m413.02 106h88" stroke="#347c68" stroke-opacity=".5">
    <animate id="anim1" attributeName="stroke" dur="800ms" fill="freeze"
      begin="2s; anim2.end + 5s"
      to="#B5D9D0"
    />
  </path>


  <path clip-rule="evenodd"
    d="m44.0427 121.415-7.0022-4.278c-.6403-.391-1.4457-.391-2.0858 0l-2.1341 1.305 8.4216 5.072 3.1052-1.87c-.0931-.085-.195-.162-.3047-.229zm-4.0427 4.599v3.124l2-1.205v-3.124l2.9965-1.805c.0023.039.0035.078.0035.118v8.256c0 .697-.3626 1.343-.9571 1.707l-7 4.278c-.0944.057-.1924.106-.2929.147v-9.539zm-.6958-1.332-8.4074-5.064-2.9399 1.797c-.1097.067-.2114.144-.3045.228l8.3476 5.029zm-12.3042-1.561c0-.039.0012-.078.0035-.117l8.2465 4.967v9.539c-.1005-.041-.1985-.09-.2929-.147l-7-4.278c-.5945-.364-.9571-1.01-.9571-1.707z"
    fill="#004d3b" fill-rule="evenodd" />
  <path d="m58 123h108v8h-108z" fill="#347c68">
    <animate id="anim1" attributeName="fill" dur="800ms" fill="freeze" begin="2s; anim2.end + 5s"
      to="#B5D9D0"
    />
  </path>
  <path d="m190 123h28v8h-28z" fill="#347c68">
    <animate id="anim1" attributeName="fill" dur="800ms" fill="freeze" begin="2s; anim2.end + 5s"
      to="#B5D9D0"
    />
  </path>


  <path
    d="m254.255 122.142c-.011-.08-.081-.125-.139-.129-.058-.005-1.28-.096-1.28-.096s-.85-.844-.943-.937-.275-.065-.346-.044c-.01.003-.185.057-.475.147-.284-.817-.784-1.567-1.665-1.567-.024 0-.049.001-.074.002-.251-.332-.561-.476-.829-.476-2.051 0-3.031 2.567-3.339 3.871-.797.247-1.363.423-1.435.446-.445.139-.459.153-.518.573-.044.317-1.208 9.327-1.208 9.327l9.072 1.701 4.915-1.064s-1.725-11.674-1.736-11.754zm-3.684-.904-.768.238c0-.054.001-.108.001-.166 0-.507-.071-.916-.184-1.24.454.057.756.573.951 1.168zm-1.514-1.068c.126.317.208.771.208 1.383v.089c-.499.155-1.042.323-1.585.492.305-1.179.877-1.749 1.377-1.964zm-.609-.577c.088 0 .178.03.263.089-.658.31-1.362 1.089-1.66 2.646l-1.253.389c.349-1.188 1.176-3.124 2.65-3.124z"
    fill="#347c68" />
  <path
    d="m254.114 122.013c-.058-.005-1.28-.096-1.28-.096s-.85-.843-.943-.937c-.035-.035-.082-.052-.131-.06l-.686 14.04 4.915-1.064s-1.725-11.674-1.736-11.754-.081-.125-.139-.129z"
    fill="#004d3b" />
  <path
    d="m249.406 124.731-.606 1.804s-.531-.284-1.182-.284c-.954 0-1.002.6-1.002.751 0 .824 2.146 1.139 2.146 3.07 0 1.518-.962 2.496-2.26 2.496-1.557 0-2.354-.97-2.354-.97l.417-1.379s.819.704 1.51.704c.451 0 .635-.356.635-.616 0-1.075-1.761-1.123-1.761-2.889 0-1.486 1.066-2.925 3.218-2.925.83 0 1.239.238 1.239.238z"
    fill="#4c9784">
    <animate id="anim1" attributeName="fill" dur="800ms" fill="freeze" begin="2s; anim2.end + 5s"
      to="#fff"
    />
  </path>


  <rect fill="#347c68" height="8" rx="4" width="108" x="280.02" y="123">
    <animate id="anim1" attributeName="fill" dur="800ms" fill="freeze" begin="2s; anim2.end + 5s"
      to="#B5D9D0"
    />
  </rect>
  <rect fill="#004d3b" height="8" width="18" x="284.02" y="123">
    <animate id="anim1" attributeName="width" dur="800ms" fill="freeze" begin="2s; anim2.end + 5s"
      to="28"
    />
    <animate id="anim1Fill" attributeName="fill" dur="800ms" fill="freeze"
      begin="2s; anim2.end + 5s"
      to="#FFA8B9"
    />
  </rect>
  <rect fill="#004d3b" height="8" width="18" rx="4" x="280.02" y="123">
    <animate id="anim1Fill" attributeName="fill" dur="800ms" fill="freeze"
      begin="2s; anim2.end + 5s"
      to="#FFA8B9"
    />
  </rect>


  <path d="m413.52 131.5 25-7.737 31.019-5.978c.965-.186 1.965-.083 2.872.296l28.609 11.945"
    stroke="#347c68" stroke-linecap="round" stroke-width="2">
    <animate id="anim1" attributeName="stroke" dur="800ms" fill="freeze"
      begin="2s; anim2.end + 5s"
      to="#FFA8B9"
    />
  </path>
  <path d="M412.762 125.526L501.132 129.483" stroke="black" stroke-opacity="0"
    stroke-dasharray="4 4">
    <animate id="anim1" attributeName="stroke-opacity" dur="800ms" fill="freeze"
      begin="2s; anim2.end + 5s"
      to="0.1"
    />
  </path>
  <path d="m413.02 138h88" stroke="#347c68" stroke-opacity=".5">
    <animate id="anim1" attributeName="stroke" dur="800ms" fill="freeze"
      begin="2s; anim2.end + 5s"
      to="#B5D9D0"
    />
  </path>


</svg>